<svg width="33" height="62" viewBox="0 0 33 62" fill="none" xmlns="http://www.w3.org/2000/svg">
<path d="M31.783 1.01054L24.0521 0.998047C15.3667 0.998047 9.75381 6.79667 9.75381 15.7716V22.5832H1.98075C1.30906 22.5832 0.765137 23.1315 0.765137 23.8078V33.6771C0.765137 34.3534 1.30968 34.9011 1.98075 34.9011H9.75381V59.8043C9.75381 60.4806 10.2977 61.0283 10.9694 61.0283H21.1111C21.7828 61.0283 22.3267 60.48 22.3267 59.8043V34.9011H31.4152C32.0869 34.9011 32.6308 34.3534 32.6308 33.6771L32.6345 23.8078C32.6345 23.4831 32.5062 23.1721 32.2785 22.9423C32.0509 22.7124 31.7408 22.5832 31.4183 22.5832H22.3267V16.8089C22.3267 14.0336 22.9835 12.6247 26.5739 12.6247L31.7817 12.6228C32.4528 12.6228 32.9967 12.0745 32.9967 11.3987V2.23459C32.9967 1.55949 32.4534 1.01179 31.783 1.01054Z" fill="white"/>
</svg>
