<?xml version="1.0" encoding="utf-8"?>
<!-- Generator: Adobe Illustrator 21.1.0, SVG Export Plug-In . SVG Version: 6.00 Build 0)  -->
<svg version="1.1" id="Layer_1" xmlns="http://www.w3.org/2000/svg" xmlns:xlink="http://www.w3.org/1999/xlink" x="0px" y="0px"
	 viewBox="0 0 516 364.8" style="enable-background:new 0 0 516 364.8;" xml:space="preserve">
<style type="text/css">
	.st0{fill:none;}
	.st1{fill:#F9CBC3;}
</style>
<g>
	<path class="st0" d="M260.7,220.6c-0.3,0.9-0.5,1.7-0.7,2.5c-0.1,0.8-0.2,1.7-0.2,2.6c0,2.2,0.4,3.9,1.2,5.3c0.8,1.3,2,2,3.4,2
		c1.4,0,2.5-0.6,3.2-1.9c0.8-1.3,1.2-3.2,1.2-5.6c0-2-0.4-3.8-1.3-5.3c-0.8-1.5-1.9-2.3-3.2-2.3c-0.9,0-1.7,0.2-2.3,0.7
		C261.5,219.1,261,219.8,260.7,220.6z"/>
	<path d="M211.2,219.3c-1.3-1.3-3-2-4.9-2c-0.8,0-1.6,0.2-2.3,0.6c-0.7,0.4-1.2,0.8-1.6,1.1c-0.4,0.4-0.8,0.9-1.3,1.6l-0.2,0.3
		l0.2-13.2c-1.4,0.6-3.4,1-6,1.1v0.3c1.9,0.1,2.8,0.4,2.8,0.9c0.1,2.9,0.1,6.7,0.1,11.2c0,4.9,0,9.1-0.1,12.5l0.5,0
		c0.2,0,0.3,0,0.5,0c0.1-0.1,0.3-0.5,0.6-1.1c0.4-0.7,0.7-1.2,1.1-1.6l0.1-0.1l0.1,0.1c1.8,1.9,3.5,2.9,5,2.9c1.9,0,3.6-0.8,5-2.3
		s2.2-3.6,2.2-6.1C213.1,222.7,212.5,220.6,211.2,219.3z M208.3,230.5c-0.8,1.4-2,2.1-3.3,2.1c-0.8,0-1.6-0.2-2.2-0.6
		c-0.6-0.4-1-0.8-1.3-1.2l-0.4-0.6v0l-0.1-4.9l0.3-3.7l0.4-0.8c0.3-0.5,0.8-1,1.4-1.6c0.7-0.5,1.4-0.8,2.1-0.8
		c0.8,0,1.6,0.2,2.2,0.7c0.6,0.5,1,1.1,1.3,1.8c0.3,0.7,0.5,1.5,0.6,2.2c0.1,0.7,0.2,1.5,0.2,2.3
		C209.6,227.4,209.2,229.1,208.3,230.5z"/>
	<path d="M230.3,218l0,0.3c0.4,0,0.7,0,0.9,0c0.2,0,0.5,0.1,0.9,0.1c0.4,0.1,0.6,0.2,0.8,0.4c0.2,0.2,0.2,0.5,0.2,0.8
		c0,0.3-0.1,0.7-0.3,1.2l-4.4,10.1l-0.1-0.2l-4-10.1c-0.2-0.5-0.2-0.9-0.2-1.1c0-0.5,0.1-0.8,0.4-0.9c0.3-0.1,0.7-0.2,1.3-0.2l0-0.3
		c-1.2,0.1-2.7,0.1-4.6,0.1c-1.6,0-2.9,0-4-0.1v0.4c1,0.1,1.7,0.2,2.2,0.4c0.7,0.2,1.2,0.7,1.4,1.4l6.1,14l0,0
		c-1,3.1-2.1,5.1-3.1,6.1c-0.9,0.8-1.6,1.2-2,1.2c-0.8,0-1.3-0.2-1.7-0.5l-0.1-0.1l0.2-0.1c1-0.4,1.5-1,1.5-1.9c0-0.6-0.2-1-0.7-1.4
		c-0.5-0.3-1.1-0.5-1.7-0.5c-0.6,0-1,0.2-1.4,0.6c-0.4,0.4-0.6,1-0.6,1.8c0,0.8,0.4,1.5,1.2,2.1c0.8,0.6,1.7,0.9,2.5,0.9
		c0,0,0.1,0,0.1,0c1.3,0,2.4-0.4,3.4-1.2c0.9-0.8,1.7-1.9,2.2-3.3l7.1-16.9c0.5-1.3,0.9-2,1.3-2.4c0.3-0.2,0.9-0.3,1.9-0.3l0-0.3
		c-0.7,0.1-1.7,0.2-3,0.2C232.4,218.1,231.2,218.1,230.3,218z"/>
	<path d="M256.2,225.1c0,5.9,2.8,8.9,8.2,8.9c2.6,0,4.6-0.9,6-2.6c1.3-1.7,2-3.9,2-6.4c0-2.1-0.8-3.9-2.4-5.5
		c-1.6-1.6-3.6-2.4-5.9-2.4c-2,0-3.9,0.8-5.5,2.3C257.1,220.9,256.2,222.8,256.2,225.1z M259.9,223.1c0.1-0.8,0.4-1.7,0.7-2.6
		c0.3-0.9,0.8-1.6,1.5-2.1c0.7-0.5,1.5-0.8,2.4-0.8c1.4,0,2.5,0.8,3.4,2.4c0.8,1.5,1.3,3.4,1.3,5.4c0,2.5-0.4,4.4-1.2,5.7
		c-0.8,1.3-2,2-3.4,2c-1.5,0-2.7-0.7-3.6-2.1c-0.8-1.4-1.3-3.2-1.3-5.4C259.7,224.9,259.8,224,259.9,223.1z"/>
	<path d="M292.1,218.3c-0.5-0.6-1.3-0.9-2.2-0.9c-1.3,0-2.3,0.5-3.2,1.4c-0.9,1-1.5,2-1.9,3.1l-0.2,0.4l-0.5-5.1
		c-2,0.5-3.7,0.8-5.2,0.8l0.1,0.4c1.3,0.1,2.1,0.2,2.5,0.4l0,0v13.1c0,0.2-0.3,0.5-1,0.7c-0.6,0.2-1.1,0.4-1.5,0.4v0.4
		c1.1-0.1,2.4-0.1,4-0.1c1.7,0,3.1,0,4.2,0.1v-0.4c-1.8-0.2-2.7-0.5-2.7-1.1l-0.1-8.5l0.4-1.2c0.3-0.8,0.8-1.6,1.5-2.4
		c0.7-0.8,1.4-1.2,2.2-1.2c0.5,0,0.8,0.1,1,0.4c0.2,0.2,0.4,0.5,0.4,0.7l0,0.1l-0.1,0c-0.7,0.5-1.1,1-1.1,1.6c0,0.5,0.3,0.9,0.7,1.2
		c0.4,0.4,0.8,0.5,1.2,0.5c0.5,0,1-0.3,1.5-0.8c0.4-0.5,0.6-1.1,0.6-1.8C292.8,219.7,292.6,218.8,292.1,218.3z"/>
	<path d="M306.8,233.1c-1.4,0-2.4-0.8-3.1-2.3c-0.7-1.5-1.1-3.3-1.1-5.2v-1h0.1l10.6,0c0-0.4,0-0.7,0-0.9c0-0.5-0.1-1-0.2-1.6
		c-0.4-1.7-1.1-2.9-2.3-3.6c-1.2-0.8-2.5-1.1-3.9-1.1c-0.9,0-1.8,0.1-2.7,0.4c-0.9,0.3-1.7,0.7-2.6,1.3c-0.8,0.6-1.5,1.5-2,2.6
		c-0.5,1.2-0.8,2.5-0.8,4c0,2.6,0.7,4.6,2.2,6c1.5,1.4,3.3,2.1,5.5,2.1c1.8,0,3.3-0.5,4.4-1.4c1.1-0.9,1.8-1.8,2.2-2.8l-0.9-0.7
		c-0.4,0.9-1,1.9-1.8,2.7C309.6,232.7,308.4,233.1,306.8,233.1z M302.7,224.1c0.1-1.9,0.4-3.4,1-4.5c0.6-1.1,1.4-1.7,2.4-1.7
		c1,0,1.8,0.3,2.5,0.8c0.7,0.5,1.1,1.3,1.3,2.1c0.1,0.5,0.2,1.2,0.2,2c0,0.4,0,0.8,0,1.3l0,0.1h-0.1l-7.2,0L302.7,224.1z"/>
	<path d="M325.9,232.3c0-2.5,0-5.4-0.1-8.9c0-3.4-0.1-5.8-0.1-7.1c0-3.1,0.1-5.9,0.2-8.4c-2.5,0.5-4.5,0.8-5.9,0.8v0.5
		c1.1,0,2,0.3,2.6,0.8l0,0v0c0.1,3.1,0.1,7.1,0.1,11.8c0,4.4,0,7.9-0.1,10.4c-0.1,0.5-0.9,0.8-2.7,0.9v0.4c1.2-0.1,2.7-0.2,4.5-0.2
		c1.6,0,2.9,0.1,4,0.2v-0.4c-0.4,0-1-0.1-1.6-0.2C326.3,232.8,326,232.6,325.9,232.3z"/>
	<g>
		<path d="M169.8,93.6c-1.5,0.4-2.6,1.5-3.3,2.9c-3.7,7.5-7.4,30.9-9,52.5c0.8,2.2,2.5,4,5.1,5.6c-1.9-0.7-3.8-1-5.5-0.9
			c-0.2,3.2-0.4,6.3-0.5,9.3c0,0.4,0,0.8,0,1.3c-4.9,7.6-14.7,21.3-23.5,19.8c-10.3-1.8-8.8-19.1-8.8-19.1s12.9,0.8,21.7-10.3
			c1.3-1.6,2.2-3.3,2.7-4.8c-0.9-1.7-2.4-3.2-4.6-4.5c1.8,0.8,3.5,1.2,5.1,1.2c0.2-7.5-7.6-12.9-14.3-11c-7,2-15.7,10.7-19.4,21
			c-0.2-0.1-0.5-0.1-0.9,0c-4.2,1.2-4.8,2.7-5.6,4.1c-2.6,3.9-3.5,21.6-17.7,27.2c-10.5,4.2-17.3-2.5-17.3-2.5
			c-12.7-9-10.5-47.8,8.9-68.5c8.6-9.1,15.1-5.3,15.9-4.8c1.8,1,5.4,4.7,6.1,9.3c0.3,2.1,1.4,6.4,5.2,7.1c1.9,0.3,2.6-1.4,2.9-3.2
			c0.3-2.1,0-4.2-0.8-6.1c-2.5-5.9-10.2-20.5-25.1-19.9c-5,0.2-9.6,2.8-13.7,6.4c2.6,1.9,6,2.9,10.2,3c-9,1.6-13.8,7-14.5,16.1
			c-0.6-4.1-1.9-7.3-4.1-9.7c-1.4,2-2.7,4-3.9,6c-4.9,8.3-8.5,17.3-10,26.8c-3.4,20.4,2.1,36.7,12.7,42.2c6.1,3.2,13,5.3,22.6,3.6
			c5.7-1,11.2-3.2,16.1-6.5c6.2-4.2,9.9-9,12.1-12.9c2.1,9.7,8.6,16.1,21.5,13.9c9.6-1.7,16.5-9.9,20.6-16.4
			c0,9.4,1.2,15.9,2.1,17.6c1.5,2.8,6,3.2,7.4,0.5c1.4-2.8,5.1-42,5.1-42s2.9-29.7,3.2-43.5c0-0.6,0-3.6,0-4.4
			C174.1,93.6,171.7,93,169.8,93.6z M110.4,120.8c0.2,1.1,0.8,1.7,1.8,1.8c-1.1,0.2-1.7,0.8-1.8,1.8c-0.2-1.2-0.9-1.7-1.8-1.8
			C109.6,122.5,110.2,121.9,110.4,120.8z M108.6,117.2c0.1,0.5,0.4,0.8,0.9,0.9c-0.5,0.1-0.8,0.4-0.9,0.9c-0.1-0.6-0.4-0.8-0.9-0.9
			C108.2,118.1,108.5,117.8,108.6,117.2z M106.8,113.6c0.1,0.5,0.4,0.8,0.8,0.8c-0.5,0.1-0.8,0.4-0.8,0.8c-0.1-0.5-0.4-0.8-0.8-0.8
			C106.5,114.4,106.8,114.1,106.8,113.6z M89.6,106.4c0.1,0.5,0.4,0.8,0.8,0.8c-0.5,0.1-0.8,0.4-0.8,0.8c-0.1-0.5-0.4-0.8-0.8-0.8
			C89.3,107.2,89.5,106.9,89.6,106.4z M86.1,109c0.1,0.6,0.5,1,1.1,1.1c-0.7,0.1-1,0.5-1.1,1.1c-0.1-0.7-0.5-1-1.1-1.1
			C85.6,110,86,109.7,86.1,109z M82.2,111.4c0.1,1,0.7,1.5,1.7,1.7c-1,0.1-1.5,0.7-1.7,1.7c-0.2-1.1-0.8-1.6-1.7-1.7
			C81.5,112.9,82.1,112.4,82.2,111.4z M78.1,117.3c0.1,0.7,0.5,1.1,1.2,1.2c-0.7,0.1-1.1,0.5-1.2,1.2c-0.1-0.8-0.6-1.1-1.2-1.2
			C77.6,118.4,78,118,78.1,117.3z M76.3,122.7c-1.1,0.2-1.7,0.8-1.8,1.8c-0.2-1.2-0.9-1.7-1.8-1.8c1-0.1,1.7-0.7,1.8-1.8
			C74.6,121.9,75.2,122.5,76.3,122.7z M73.3,117.2c0.1,0.5,0.4,0.8,0.9,0.9c-0.6,0.1-0.8,0.4-0.9,0.9c-0.1-0.6-0.4-0.9-0.9-0.9
			C72.9,118.1,73.2,117.8,73.3,117.2z M66.2,124.1c0.5,3.5,2.5,5.5,5.9,5.9c-3.6,0.5-5.5,2.5-5.9,5.9c-0.6-3.8-2.8-5.6-5.9-5.9
			C63.6,129.6,65.7,127.7,66.2,124.1z M60.7,133.6c0.1,0.9,0.6,1.4,1.5,1.5c-0.9,0.1-1.4,0.6-1.5,1.5c-0.2-1-0.7-1.4-1.5-1.5
			C60.1,135,60.6,134.5,60.7,133.6z M58.1,137.7c0.1,0.6,0.5,1,1.1,1.1c-0.6,0.1-1,0.5-1.1,1.1c-0.1-0.7-0.5-1-1.1-1.1
			C57.6,138.7,58,138.3,58.1,137.7z M57.3,142.8c0.1,1,0.7,1.5,1.7,1.7c-1,0.1-1.5,0.7-1.7,1.7c-0.2-1.1-0.8-1.6-1.7-1.7
			C56.6,144.4,57.2,143.8,57.3,142.8z M54.7,148.8c0,0,3.2,0.7,3,3.8c-0.4,5.3-2.1,14.5,4.5,29.6C62.2,182.2,51.4,171.4,54.7,148.8z
			 M62.2,142.7c-0.2-1.5-1.1-2.2-2.3-2.3c1.3-0.2,2.1-0.9,2.3-2.3c0.2,1.4,1,2.1,2.3,2.3C63.1,140.6,62.4,141.4,62.2,142.7z
			 M64.8,187.3c0-0.8-0.4-1.2-1.2-1.3c0.7-0.1,1.2-0.5,1.3-1.2c0,0.8,0.5,1.2,1.2,1.3C65.3,186.1,64.9,186.5,64.8,187.3z
			 M114.4,172.2c-0.1-0.7-0.5-1.1-1.1-1.1c0.6-0.1,1-0.5,1.1-1.1c0.1,0.7,0.5,1.1,1.1,1.1C114.8,171.1,114.5,171.5,114.4,172.2z
			 M139.4,146.6c-1.8,5.9-9.8,8.3-9.8,8.3C131.9,146.1,141.2,140.7,139.4,146.6z M128.4,141.1c0.1,0.7,0.5,1.1,1.1,1.1
			c-0.7,0.1-1.1,0.5-1.1,1.1c-0.1-0.7-0.5-1.1-1.1-1.1C127.9,142.2,128.3,141.8,128.4,141.1z M127.5,150.3c-1,0.2-1.6,0.7-1.7,1.7
			c-0.2-1.1-0.8-1.6-1.7-1.7c1-0.1,1.6-0.7,1.7-1.7C125.9,149.6,126.5,150.2,127.5,150.3z M124.6,144.5c0.1,0.7,0.5,1.1,1.1,1.1
			c-0.7,0.1-1.1,0.5-1.1,1.1c-0.1-0.7-0.5-1.1-1.1-1.1C124.1,145.6,124.5,145.2,124.6,144.5z M121.6,147.8c0.1,0.7,0.5,1.1,1.1,1.1
			c-0.7,0.1-1.1,0.5-1.1,1.1c-0.1-0.7-0.5-1.1-1.1-1.1C121.2,148.8,121.5,148.5,121.6,147.8z M117.2,162.1c0.1,0.7,0.5,1.1,1.1,1.1
			c-0.7,0.1-1.1,0.5-1.1,1.1c-0.1-0.7-0.5-1.1-1.1-1.1C116.7,163.2,117.1,162.8,117.2,162.1z M117.2,169.6c-0.2-1-0.7-1.5-1.6-1.6
			c0.9-0.1,1.4-0.6,1.6-1.6c0.1,0.9,0.7,1.5,1.6,1.6C117.9,168.1,117.4,168.7,117.2,169.6z M120.6,161.5c-0.1-0.7-0.5-1.1-1.1-1.1
			c0.7-0.1,1-0.5,1.1-1.1c0.1,0.7,0.5,1.1,1.1,1.1C121,160.5,120.6,160.9,120.6,161.5z M122.6,158.3c-0.3-1.8-1.3-2.7-2.9-2.9
			c1.6-0.2,2.6-1.1,2.9-2.9c0.2,1.7,1.2,2.6,2.9,2.9C123.8,155.7,122.9,156.6,122.6,158.3z M158.6,162.7c-0.1-0.6-0.5-0.9-1-1
			c0.6-0.1,0.9-0.4,1-1c0.1,0.6,0.4,0.9,1,1C159,161.7,158.6,162.1,158.6,162.7z M159.6,159.5c-0.1-0.6-0.5-0.9-1-1
			c0.6-0.1,0.9-0.4,1-1c0.1,0.6,0.4,0.9,1,1C160,158.6,159.7,158.9,159.6,159.5z M160.6,148.8c-0.1-0.6-0.5-0.9-1-1
			c0.6-0.1,0.9-0.4,1-1c0.1,0.6,0.4,0.9,1,1C161,147.8,160.7,148.2,160.6,148.8z M162.7,145.4c-0.2-1.3-1-1.9-2-2
			c1.2-0.1,1.9-0.8,2-2c0.2,1.2,0.9,1.9,2,2C163.5,143.5,162.8,144.2,162.7,145.4z M164.3,140.2c-0.1-0.6-0.5-0.9-1-1
			c0.6-0.1,0.9-0.4,1-1c0.1,0.6,0.4,0.9,1,1C164.7,139.3,164.4,139.6,164.3,140.2z M165.9,138.1c-0.1-0.7-0.5-1-1-1
			c0.6-0.1,0.9-0.4,1-1c0.1,0.6,0.4,1,1,1C166.3,137.1,166,137.5,165.9,138.1z M167.7,135c-0.3-1.6-1.2-2.4-2.5-2.5
			c1.4-0.2,2.3-1,2.5-2.5c0.2,1.5,1.1,2.3,2.5,2.5C168.7,132.8,167.9,133.6,167.7,135z M165.8,118.9c0.6-0.1,0.9-0.4,1-1
			c0.1,0.6,0.4,1,1,1c-0.6,0.1-1,0.5-1,1C166.7,119.3,166.3,119,165.8,118.9z M169.6,128.7c-0.1-0.9-0.6-1.3-1.4-1.4
			c0.8-0.1,1.3-0.6,1.4-1.4c0.1,0.8,0.6,1.3,1.4,1.4C170.1,127.4,169.7,127.9,169.6,128.7z M169.6,123.7c-0.1-0.9-0.6-1.3-1.4-1.4
			c0.8-0.1,1.3-0.6,1.4-1.4c0.1,0.8,0.6,1.3,1.4,1.4C170.2,122.5,169.8,122.9,169.6,123.7z M169.5,117.6c-0.4-2.2-1.6-3.2-3.4-3.4
			c2-0.3,3.1-1.4,3.4-3.4c0.3,2.1,1.5,3.2,3.4,3.4C170.9,114.5,169.8,115.6,169.5,117.6z M172.2,109.6c-0.1-0.6-0.5-0.9-1-1
			c0.6-0.1,0.9-0.4,1-1c0.1,0.6,0.4,0.9,1,1C172.6,108.7,172.3,109.1,172.2,109.6z"/>
		<path d="M368.8,175.6c-0.4-1.4-1.6-0.8-2.4,0.2c-0.5,0.5-4.6,6.2-7.8,5.5c-1.4-0.3-7.4-4.7-7.3-18.7c0-7.8,1.6-18,3.4-27.4
			c0.8,0,2.4,0,4.4-0.3c4.2-0.6,10.4-2.2,15.2-7c0.2-0.2,0.4-0.4,0.5-0.6c1-1.3,4.7-5.7,2.7-7.5c-1-0.9-2.2-0.2-3.9,0.9
			c-0.6,2.8-2.1,7-6,7.8c0,0,2.4-2.4,3.1-6.1c-1.4,0.7-3,1.3-5,1.4c-0.9,0-2,0-3.3,0c-1.6,0-3.4-0.1-5.3-0.2
			c1.7-7.5,3.1-12.9,3.2-13.8c0.2-2-2-6.4-3.9-6.7c0,0-4.5-1-7.5,7.4c-0.1,0.2-0.2,0.6-0.4,1.2c1.4,1.4,3.3,2.4,5.9,2.7
			c-4.1,0.3-7,2-8.4,5.3c-0.3,0.9-0.6,1.9-0.9,2.9c-3.3-0.4-5.9-0.7-6.8-1c-1.8-0.6-4.1-0.1-5.5,0.3c-1.1,0.3-2.1,0.9-2.9,1.7
			c-0.9,1-1.9,2.5-1.8,4.6c0,0.5,0.3,1,0.6,1.5c0.5,0.6,1.3,1.1,2.2,1.6c2.7,1.4,7,2.4,11.1,3c-0.3,1.2-0.5,2.4-0.7,3.4
			c-1.9,11.1-2,26.9,0.6,36.6c-2.9,3.2-6.2,5.4-6.3,5.4c-1.3,0.8-2.7,0.8-3.7,0c-5-4.2-3.7-10.4-1.7-19.3c0.6-2.5,1.2-5.3,1.8-8.3
			c0,0,0.9-3.9-0.3-5.3c-1.8-2.1-2.4-1.8-3.8-0.3c-0.2,0.3-4.6,6.1-4.8,6.4c-4.9,7-9,13.3-10.5,15.6c-0.6,1-1.4,1.8-2.2,2.5
			c-0.4,0.3-0.9,0.7-1.4,0.9c-1.5,0.8-3.2,0.7-4.2-2.1c-2.2-6.1-1.4-19.4,9.5-24c3.2-1.4,6.6-0.9,6.6-0.9s4.4,0.5,1.7-3.1
			c-0.6-0.8-1.6-1.7-2.9-2.4c-5.2-2.8-15.2-3.1-23.4,11.2c-0.2-4.5-1.9-9.3-5.1-10.6c-5-2-12.3-2.1-16.8,6.1c-1.2,0-1-6.5-2.6-9
			c-1.6-2.5-5.7-4.1-7.9-3.3c-2.2,0.8-3.8,15.4-3.8,15.4s-0.2,1.5-0.4,4.1c-0.5-4.4-1.9-8.1-4.3-10.1c-6.6-5.4-13.2-2.7-16.6,1.3
			c-3.4,4-3.2,0-3.2,0s1.8-21.2,3-34.2c0-0.5,0.3-3.4,0.3-4.2c0.1-5.2-2.2-6.1-3.7-6.1c-2.3,0-3.3,1.6-4.4,4
			c-3.9,8.7-7.6,32.9-9.9,54.1c-0.2,1.4-0.3,2.9-0.4,4.2c-4.5,7-15,23-24.5,21.3c-10.3-1.8-8.8-19.1-8.8-19.1s12.9,0.8,21.7-10.3
			c8.8-11.1-2.1-21.7-11.1-19.1c-9,2.6-20.9,16.3-21.2,30.2c-0.3,13.9,5.9,25,22.2,22.2c10.1-1.8,17.2-10.7,21.1-17.3
			c-0.3,7.2-0.1,13.5,0.6,14.9c1.9,3.5,5.4,2.2,6.4,0.7c2.2-3.5,2.4-23,11.7-34.5c4.2-5.2,16.2-16.2,12.2,7.5
			c-3.6,21.7-12.4,24.1-15.8,23.5c-1.3-0.2-2.7,0-3.1,1c-0.5,1.2,0.5,2.6,4.7,3.4c3.7,0.6,14.9,0,19.1-9.1c1.9-4.2,3.3-9.3,3.9-14.4
			c0.2,4.9,0.8,10.6,2.2,16.2c0.3,1,0.9,1.9,1.8,2.5c0,0,6.5,5.3,6.8,1c0.3-4.3-0.8-18.3,3.9-28.9c0,0,5.8-12.1,11.8-11.1
			c5.2,0.9,4.3,3.6,3.1,7c-0.5,1.6-1.1,3.3-1.1,5c0,4,4.7,3.7,4.7,3.7c0.1,0,0.2,0,0.3-0.1c-1.1,5.5-0.1,10.7,1.9,14.7
			c0.9-1.3,1.5-3.1,1.6-5.2c0.3,5.4,3.1,8.4,8.5,8.9c-2.4,0.2-4.3,1-5.7,2.2c2.1,1.9,4.3,2.9,6.3,2.9c2.2,0,4.4-1.1,6.4-2.9
			c2.6-2.3,5-5.6,7-8.9c0.2-0.3,0.4-0.6,0.6-1c0,0,0.7-1.8,0.7,2.2c0,2.8,1,5.4,2.6,7.5c1.3,1.8,3.1,3.2,5.1,4.2
			c0.5,0.2,1,0.4,1.5,0.6c2.7,0.7,5.6,0.1,8-1.2c0.7-0.4,1.5-0.9,2.2-1.4c1.5-1,2.7-2,3.8-2.9c0.1,0.2,0.2,0.4,0.3,0.6
			c2.5,4.3,5.1,6.6,7.8,7.6c5.2,1.9,10.4-1.4,14.2-5.6c0.4-0.4,0.7-0.8,1-1.2c0,0,0,0,0,0c0.5-0.6,0.9-1.3,1.2-2
			c0.1-0.2,0.2-0.4,0.2-0.6c0,0,0,0,0,0C368.9,176.9,369,176.2,368.8,175.6C368.8,175.6,368.8,175.6,368.8,175.6z M202.4,146.6
			c-1.8,5.9-9.8,8.3-9.8,8.3C195,146.1,204.3,140.7,202.4,146.6z M236.9,106.9c0.1,0.6,0.4,0.9,1,1c-0.6,0.1-0.9,0.4-1,1
			c-0.1-0.6-0.5-0.9-1-1C236.5,107.9,236.8,107.5,236.9,106.9z M233.4,112.1c0.1,0.7,0.5,1,1.1,1.1c-0.7,0.1-1,0.5-1.1,1.1
			c-0.1-0.7-0.5-1-1.1-1.1C232.9,113.1,233.3,112.8,233.4,112.1z M232.1,116.3c0.1,0.6,0.5,1,1.1,1.1c-0.7,0.1-1,0.5-1.1,1.1
			c-0.1-0.7-0.5-1-1.1-1.1C231.7,117.3,232,117,232.1,116.3z M229.2,126.6c0.1,0.7,0.5,1,1.1,1.1c-0.7,0.1-1,0.5-1.1,1.1
			c-0.1-0.7-0.5-1-1.1-1.1C228.7,127.6,229.1,127.2,229.2,126.6z M226,138.4c0.1,0.5,0.4,0.8,0.8,0.8c-0.5,0.1-0.8,0.4-0.8,0.8
			c-0.1-0.6-0.4-0.8-0.8-0.8C225.7,139.2,226,138.9,226,138.4z M223.5,158c0.1,0.6,0.4,0.9,1,1c-0.6,0.1-0.9,0.4-1,1
			c-0.1-0.6-0.5-0.9-1-1C223.1,158.9,223.4,158.6,223.5,158z M223.1,153.3c0.4-0.1,0.7-0.3,0.8-0.8c0.1,0.5,0.3,0.7,0.8,0.8
			c-0.5,0.1-0.7,0.3-0.8,0.8C223.8,153.5,223.5,153.3,223.1,153.3z M223.1,172.7c-0.1-0.5-0.4-0.7-0.8-0.8c0.4-0.1,0.7-0.3,0.8-0.8
			c0.1,0.5,0.3,0.7,0.8,0.8C223.4,172,223.2,172.2,223.1,172.7z M223.1,169.5c-0.1-0.5-0.4-0.7-0.8-0.8c0.4-0.1,0.7-0.3,0.8-0.8
			c0.1,0.5,0.3,0.7,0.8,0.8C223.4,168.8,223.2,169.1,223.1,169.5z M223.1,166.3c-0.2-1.3-0.9-1.8-1.9-1.9c1.1-0.1,1.8-0.8,1.9-1.9
			c0.2,1.2,0.8,1.8,1.9,1.9C223.9,164.6,223.2,165.2,223.1,166.3z M224.1,150.4c-0.1-0.6-0.5-0.9-1-1c0.6-0.1,0.9-0.4,1-1
			c0.1,0.6,0.4,0.9,1,1C224.5,149.5,224.2,149.9,224.1,150.4z M225.3,145.6c-0.1-0.6-0.5-0.9-1-1c0.6-0.1,0.9-0.4,1-1
			c0.1,0.6,0.4,0.9,1,1C225.7,144.7,225.4,145,225.3,145.6z M227.6,144.1c-0.2-1-0.7-1.4-1.5-1.5c0.9-0.1,1.4-0.6,1.5-1.5
			c0.1,0.9,0.6,1.4,1.5,1.5C228.2,142.7,227.7,143.2,227.6,144.1z M229.8,132.5c-0.1-0.7-0.5-1-1.1-1.1c0.6-0.1,1-0.4,1.1-1.1
			c0.1,0.7,0.5,1,1.1,1.1C230.3,131.5,229.9,131.9,229.8,132.5z M232.1,126.2c-0.3-1.9-1.4-2.8-3-3c1.7-0.2,2.7-1.2,3-3
			c0.3,1.8,1.3,2.7,3,3C233.3,123.6,232.3,124.6,232.1,126.2z M234.7,111.6c0.8-0.1,1.3-0.6,1.4-1.4c0.1,0.8,0.6,1.3,1.4,1.4
			c-0.8,0.1-1.3,0.6-1.4,1.4C235.9,112.1,235.4,111.7,234.7,111.6z M262.9,164.1c-0.1-0.6-0.5-0.9-1-1c0.6-0.1,0.9-0.4,1-1
			c0.1,0.6,0.4,0.9,1,1C263.3,163.2,262.9,163.5,262.9,164.1z M259.9,162.9c-0.5-2.8-2.1-4.1-4.4-4.3c2.5-0.3,4.2-1.7,4.5-4.3
			c0.4,2.6,1.6,4,4.1,4.3C261.6,158.9,260.3,160.4,259.9,162.9z M264.9,156.9c-0.2-1.3-0.9-1.8-1.9-1.9c1.1-0.1,1.8-0.8,1.9-1.9
			c0.2,1.2,0.8,1.8,1.9,1.9C265.7,155.1,265,155.8,264.9,156.9z M266.3,151.6c-0.1-0.7-0.5-1-1.1-1.1c0.6-0.1,1-0.4,1.1-1.1
			c0.1,0.6,0.5,1,1.1,1.1C266.7,150.6,266.3,151,266.3,151.6z M267.6,145.6c-0.2-0.9-0.7-1.3-1.4-1.4c0.8-0.1,1.3-0.6,1.4-1.4
			c0.1,0.8,0.6,1.3,1.4,1.4C268.2,144.3,267.7,144.8,267.6,145.6z M268.9,148.9c-0.1-0.5-0.4-0.7-0.8-0.8c0.4-0.1,0.7-0.3,0.8-0.8
			c0.1,0.5,0.3,0.7,0.8,0.8C269.2,148.2,268.9,148.5,268.9,148.9z M270.3,142.1c-0.1-0.6-0.5-0.9-1-1c0.6-0.1,0.9-0.4,1-1
			c0.1,0.6,0.4,0.9,1,1C270.6,141.2,270.3,141.5,270.3,142.1z M303.7,146c0,0,2.6-5.1,8.5-3.6c0,0-7.8,4.3-8.6,7.4
			C303.6,149.8,302.4,148.1,303.7,146z M323.5,171.7c-0.1-0.6-0.5-0.9-1-1c0.6-0.1,0.9-0.4,1-1c0.1,0.6,0.4,0.9,1,1
			C323.9,170.8,323.6,171.1,323.5,171.7z M323.6,167.6c-0.2-1.2-0.9-1.8-1.9-1.9c1.1-0.1,1.7-0.7,1.9-1.9c0.2,1.1,0.8,1.7,1.9,1.9
			C324.4,165.9,323.8,166.6,323.6,167.6z M325.2,162.1c-0.2-0.9-0.7-1.3-1.4-1.4c0.8-0.1,1.3-0.6,1.4-1.4c0.1,0.8,0.6,1.3,1.4,1.4
			C325.8,160.8,325.3,161.3,325.2,162.1z M328,158c-0.1-0.5-0.4-0.7-0.8-0.8c0.4-0.1,0.7-0.3,0.8-0.8c0.1,0.5,0.3,0.7,0.8,0.8
			C328.3,157.3,328.1,157.6,328,158z M356.9,113.2c0.1,0.8,0.6,1.3,1.4,1.4c-0.8,0.1-1.3,0.6-1.4,1.4c-0.2-0.9-0.6-1.3-1.4-1.4
			C356.4,114.5,356.8,114,356.9,113.2z M354.2,117.9c0.2,1.4,1,2.2,2.4,2.4c-1.4,0.2-2.2,1-2.4,2.4c-0.3-1.5-1.1-2.3-2.4-2.4
			C353.2,120.1,354,119.3,354.2,117.9z M349,121.5c0.1,0.8,0.6,1.3,1.4,1.4c-0.8,0.1-1.3,0.6-1.4,1.4c-0.2-0.9-0.7-1.3-1.4-1.4
			C348.4,122.8,348.8,122.3,349,121.5z M346.5,125.2c0.1,0.6,0.4,0.9,1,1c-0.6,0.1-0.9,0.4-1,1c-0.1-0.6-0.5-0.9-1-1
			C346.1,126.2,346.5,125.8,346.5,125.2z M343.6,138.2c-0.1-0.6-0.5-0.9-1-1c0.6-0.1,0.9-0.4,1-1c0.1,0.6,0.4,0.9,1,1
			C344,137.3,343.7,137.6,343.6,138.2z M344.9,133.5c-0.2-0.9-0.7-1.3-1.4-1.4c0.8-0.1,1.3-0.6,1.4-1.4c0.1,0.8,0.6,1.3,1.4,1.4
			C345.5,132.2,345,132.7,344.9,133.5z M346.5,128.8c2.2-0.3,3.5-1.5,3.8-3.8c0.3,2.3,1.6,3.5,3.8,3.8c-2.3,0.3-3.5,1.6-3.8,3.8
			C350,130.2,348.6,129.1,346.5,128.8z"/>
		<path d="M381.3,146.9c-1.1-1.1-2.6,1.3-3.8,3.9c-1.6,3.5-2.5,7.2-3,11c-0.6,5-1,12.3,1.3,17.8c0.7,1.7,1.3,3.4,3,4.3
			c0.1,0.1,0.2,0.1,0.3,0.1c1,0.3,2.1-0.4,2.4-1.4c0.3-0.9,0.6-2.4,0.8-4.9c0.4-5.9,1.2-12,1.2-24.9c0-1.8-0.2-2.6-0.7-3.7
			C382.5,148.3,382.1,147.5,381.3,146.9z"/>
		<path d="M380,135.3c-1.3,5.4,1.5,7,2.7,7.7c1.3,0.8,6.2-3.9,5.7-7.7C388,131.5,381.2,130.7,380,135.3z"/>
		<path d="M469.7,167.7l-14.8,3.3c0,0-1.3,0.4-0.6-1.9c0.8-2.4,3.1-11.1,1.9-15.6c-2-7-7.6-8.8-10.6-7.2c-3.8,2.1-7.4,5.1-7.4,5.1
			s-1.4,1.3-1.6-0.6c-0.2-2.1-1.8-7.5-5.2-9.6c0,0-4.6-3.6-5.9-0.4c0,0,0,0,0,0.1c-0.2,0.4-0.4,1.1-0.6,1.8c1.1,2.5,3.3,4.2,6.7,5.1
			c-5.4-0.2-8.8,2.2-10.4,7.4c0.4-5.5-2-9-7.4-10.4c2.4,0.3,4.4,0,6-0.9c0,0-0.1-0.1-0.1-0.1c-0.6-0.8-1.6-1.7-2.9-2.4
			c-5.2-2.8-15.2-3.1-23.4,11.2c-9.3,16.2,1.8,31.8,9.6,31.8c2.2,0,4.5-1,6.4-2.9c5-4.9,6.4-7.7,7.9-10.3h0c0.8-1.3,2-3.6,3.1-6.7
			c-1.2,7-2.2,14.1-1.9,15.9c0.4,2.6,0.9,4,3.8,4.2c1.6,0.1,3.3-3.7,4-5.9c1.7-5.3,2.5-8.8,7.2-13.9c6.8-7.2,11.2-8.5,11.2-8.5
			s4.3-1.6,3.8,0.3c-0.5,1.9-3.6,12.4-3.9,17.7c-0.2,3.7,3.6,7.7,7.6,6.7c4-0.9,17.3-8.6,17.3-8.6
			C472.6,170.4,472.2,167.2,469.7,167.7z M411,143.2c0.1,0.8,0.6,1.3,1.4,1.4c-0.8,0.1-1.3,0.6-1.4,1.4c-0.2-0.9-0.7-1.3-1.4-1.4
			C410.4,144.5,410.9,144,411,143.2z M398,178.6c-3.3-2.9-2.1-4.1-1.2-6.4c0,0,0.7,6.5,9.6,6.4C406.4,178.6,401.3,181.5,398,178.6z
			 M411.2,168.6c-0.5,0.7-2.1,3.9-4.9,5.1c-1.5,0.7-3.2,0.7-4.2-2.1c-1.3-3.6-1.8-10.2,0.2-15.1c1.2-2.9,3.6-5.2,6.6-6.1
			c2-0.6,4.4-0.7,6.4,1.3C417.6,154.3,414.1,162.8,411.2,168.6z M425.4,153.8c0.1,0.5,0.3,0.7,0.8,0.8c-0.5,0.1-0.7,0.3-0.8,0.8
			c-0.1-0.5-0.4-0.7-0.8-0.8C425.1,154.5,425.3,154.3,425.4,153.8z M423.3,170.6c-0.3-1.5-1.1-2.3-2.4-2.4c1.4-0.2,2.2-1,2.4-2.4
			c0.2,1.4,1,2.2,2.4,2.4C424.2,168.4,423.5,169.2,423.3,170.6z M426.4,164.6c-0.1-0.6-0.5-0.9-1-1c0.6-0.1,0.9-0.4,1-1
			c0.1,0.6,0.4,0.9,1,1C426.8,163.7,426.5,164.1,426.4,164.6z M426.8,160.4c-0.1-0.9-0.6-1.3-1.4-1.4c0.8-0.1,1.3-0.6,1.4-1.4
			c0.1,0.8,0.6,1.3,1.4,1.4C427.3,159.1,426.9,159.6,426.8,160.4z M449.3,177.1c0,0-2.2-1-2.1-3.3c0,0,4,2.5,8.5,2.6
			C455.8,176.3,454.2,180.1,449.3,177.1z"/>
	</g>
	<path class="st1" d="M161.6,247.2c-2.5-14.8-10.8-21.6-22.9-22.9c13.1-1.7,20.9-9.1,22.9-22.9c2,13.7,9.7,21.2,22.9,22.9
		C170.7,226.3,163.3,234.1,161.6,247.2z"/>
</g>
<g>
</g>
<g>
</g>
<g>
</g>
<g>
</g>
<g>
</g>
<g>
</g>
</svg>
