<svg width="27" height="26" viewBox="0 0 27 26" fill="none" xmlns="http://www.w3.org/2000/svg">
<path d="M0.0125427 20.519C-0.0425873 20.9414 0.0861225 21.3086 0.398134 21.6207L4.06127 25.2562C4.22652 25.4398 4.44222 25.596 4.70847 25.7244C4.97471 25.853 5.23631 25.9356 5.49329 25.9723C5.51165 25.9723 5.56687 25.977 5.65872 25.9862C5.75039 25.9953 5.86974 26 6.01664 26C6.36559 26 6.93026 25.9403 7.71062 25.8209C8.49099 25.7015 9.44574 25.4077 10.5749 24.9396C11.7043 24.4714 12.985 23.7689 14.4171 22.8326C15.8493 21.8963 17.3733 20.6109 18.9892 18.9767C20.2745 17.7097 21.3394 16.4979 22.1841 15.3411C23.0287 14.1843 23.7081 13.1147 24.2222 12.1324C24.7364 11.1501 25.122 10.2595 25.379 9.46079C25.6361 8.66206 25.8105 7.9735 25.9023 7.39511C25.9941 6.81672 26.0309 6.36228 26.0125 6.03177C25.9941 5.70126 25.985 5.51765 25.985 5.48092C25.9482 5.22386 25.8656 4.96221 25.7371 4.69597C25.6085 4.42972 25.4525 4.21398 25.2689 4.04872L21.6057 0.385593C21.3487 0.128531 21.0549 0 20.7244 0C20.4857 0 20.2745 0.0688558 20.0909 0.206567C19.9073 0.344279 19.7512 0.514123 19.6227 0.7161L16.6757 6.30719C16.5104 6.60098 16.4645 6.9223 16.5379 7.27117C16.6114 7.62004 16.7675 7.91383 17.0062 8.15253L18.3557 9.5021C18.3925 9.53883 18.4246 9.5985 18.4521 9.68113C18.4797 9.76375 18.4934 9.83261 18.4934 9.88769C18.42 10.2733 18.2547 10.714 17.9977 11.2097C17.7773 11.6504 17.4377 12.1875 16.9786 12.821C16.5196 13.4544 15.8677 14.1843 15.0231 15.0105C14.1968 15.8552 13.4624 16.5116 12.8197 16.9799C12.1772 17.4479 11.6399 17.7923 11.2085 18.0127C10.777 18.233 10.4464 18.3661 10.217 18.4119L9.87279 18.4808C9.83606 18.4808 9.77625 18.467 9.69372 18.4395C9.61109 18.4119 9.55141 18.3798 9.51465 18.3431L7.94478 16.7456C7.61409 16.4519 7.22868 16.305 6.78795 16.305C6.47572 16.305 6.22797 16.36 6.04436 16.4702H6.01686L0.701237 19.61C0.31551 19.8489 0.0860329 20.1518 0.0125427 20.519Z" fill="#333333"/>
</svg>
