<svg width="31" height="30" viewBox="0 0 31 30" fill="none" xmlns="http://www.w3.org/2000/svg">
<path d="M28.0927 5.82727H25.9051C26.1936 5.37061 26.3841 4.85802 26.4384 4.3159C26.6118 2.58335 25.6994 1.03024 24.146 0.341676C22.7181 -0.291248 21.1135 -0.0325144 19.9581 1.01545L17.1958 3.51886C16.6579 2.93048 15.8846 2.5607 15.0263 2.5607C14.1665 2.5607 13.392 2.93166 12.8539 3.52185L10.0881 1.01516C8.93078 -0.0328079 7.32684 -0.290544 5.89964 0.342028C4.34665 1.03065 3.43404 2.58429 3.60801 4.31678C3.66242 4.85849 3.85272 5.37085 4.14121 5.82727H1.95993C0.877453 5.82727 0 6.70478 0 7.78721V10.7271C0 11.2683 0.438756 11.7071 0.979996 11.7071H29.0727C29.6138 11.7071 30.0526 11.2684 30.0526 10.7271V7.78721C30.0526 6.70478 29.1751 5.82727 28.0927 5.82727ZM12.0864 5.50063V5.82727H7.47617C6.2581 5.82727 5.29947 4.69173 5.60369 3.42353C5.7377 2.86504 6.14082 2.38895 6.66222 2.14794C7.3782 1.81701 8.17131 1.92325 8.77266 2.46754L12.0872 5.47175C12.087 5.48143 12.0864 5.49094 12.0864 5.50063ZM24.4937 4.05569C24.4207 5.07425 23.5006 5.82739 22.4795 5.82739H17.9662V5.50074C17.9662 5.48918 17.9655 5.47773 17.9654 5.46617C18.7162 4.78553 20.3451 3.30919 21.2286 2.5084C21.7307 2.05332 22.4332 1.8409 23.0826 2.0346C24.0145 2.31259 24.5618 3.1051 24.4937 4.05569Z" fill="#333333"/>
<path d="M1.95996 13.667V28.04C1.95996 29.1225 2.83741 29.9999 3.91989 29.9999H13.0663V13.667H1.95996Z" fill="#333333"/>
<path d="M16.9863 13.667V29.9999H26.1328C27.2152 29.9999 28.0927 29.1225 28.0927 28.04V13.667H16.9863Z" fill="#333333"/>
</svg>
