<svg width="20" height="20" viewBox="0 0 20 20" fill="none" xmlns="http://www.w3.org/2000/svg">
<path d="M6.66667 2C4.09375 2 2 4.09375 2 6.66667V13.3333C2 15.9062 4.09375 18 6.66667 18H13.3333C15.9062 18 18 15.9062 18 13.3333V6.66667C18 4.09375 15.9062 2 13.3333 2H6.66667ZM14.6667 4.66667C15.0339 4.66667 15.3333 4.96615 15.3333 5.33333C15.3333 5.70052 15.0339 6 14.6667 6C14.2995 6 14 5.70052 14 5.33333C14 4.96615 14.2995 4.66667 14.6667 4.66667ZM10 6C12.2057 6 14 7.79427 14 10C14 12.2057 12.2057 14 10 14C7.79427 14 6 12.2057 6 10C6 7.79427 7.79427 6 10 6ZM10 7.33333C8.52604 7.33333 7.33333 8.52604 7.33333 10C7.33333 11.474 8.52604 12.6667 10 12.6667C11.474 12.6667 12.6667 11.474 12.6667 10C12.6667 8.52604 11.474 7.33333 10 7.33333Z" fill="black"/>
</svg>
