<svg width="46" height="63" viewBox="0 0 46 63" fill="none" xmlns="http://www.w3.org/2000/svg">
<path d="M22.8162 0C10.2353 0 0 10.2353 0 22.8161C0 38.4293 20.4183 61.3503 21.2876 62.3184C22.1041 63.2279 23.5298 63.2263 24.3448 62.3184C25.2141 61.3503 45.6324 38.4293 45.6324 22.8161C45.6322 10.2353 35.397 0 22.8162 0ZM22.8162 34.2955C16.4864 34.2955 11.3369 29.1459 11.3369 22.8161C11.3369 16.4863 16.4866 11.3368 22.8162 11.3368C29.1459 11.3368 34.2954 16.4864 34.2954 22.8162C34.2954 29.146 29.1459 34.2955 22.8162 34.2955Z" fill="#333333"/>
</svg>
