<svg width="8" height="16" viewBox="0 0 8 16" fill="none" xmlns="http://www.w3.org/2000/svg">
<mask id="path-1-inside-1" fill="white">
<path d="M6.83491 14.8961C6.93413 14.9953 7.05816 15.0449 7.1946 15.0449C7.33103 15.0449 7.45506 14.9953 7.55429 14.8961C7.75274 14.6977 7.75274 14.3752 7.55429 14.1767L1.22871 7.85115L7.55429 1.52557C7.75274 1.32712 7.75274 1.00464 7.55429 0.806186C7.35584 0.607736 7.03336 0.607736 6.83491 0.806186L0.149636 7.49146C-0.0488133 7.68991 -0.0488133 8.01239 0.149636 8.21084L6.83491 14.8961Z"/>
</mask>
<path d="M6.83491 14.8961C6.93413 14.9953 7.05816 15.0449 7.1946 15.0449C7.33103 15.0449 7.45506 14.9953 7.55429 14.8961C7.75274 14.6977 7.75274 14.3752 7.55429 14.1767L1.22871 7.85115L7.55429 1.52557C7.75274 1.32712 7.75274 1.00464 7.55429 0.806186C7.35584 0.607736 7.03336 0.607736 6.83491 0.806186L0.149636 7.49146C-0.0488133 7.68991 -0.0488133 8.01239 0.149636 8.21084L6.83491 14.8961Z" fill="#BDBDBD"/>
<path d="M6.83491 14.8961L8.24912 13.4819L8.24912 13.4819L6.83491 14.8961ZM7.55429 14.1767L6.14007 15.5909L7.55429 14.1767ZM1.22871 7.85115L-0.185507 9.26536L-1.59972 7.85115L-0.185507 6.43693L1.22871 7.85115ZM7.55429 1.52557L8.9685 2.93978L8.9685 2.93978L7.55429 1.52557ZM6.83491 0.806186L8.24912 2.2204L8.24912 2.2204L6.83491 0.806186ZM0.149636 7.49146L-1.26458 6.07724L-1.26458 6.07724L0.149636 7.49146ZM0.149636 8.21084L-1.26458 9.62505L-1.26458 9.62505L0.149636 8.21084ZM8.24912 13.4819C7.9664 13.1992 7.57879 13.0449 7.1946 13.0449L7.1946 17.0449C6.53754 17.0449 5.90187 16.7915 5.42069 16.3103L8.24912 13.4819ZM7.1946 13.0449C6.8104 13.0449 6.4228 13.1992 6.14007 13.4819L8.9685 16.3103C8.48733 16.7915 7.85166 17.0449 7.1946 17.0449L7.1946 13.0449ZM6.14007 13.4819C5.55748 14.0645 5.55748 15.0083 6.14007 15.5909L8.9685 12.7625C9.948 13.742 9.948 15.3308 8.9685 16.3103L6.14007 13.4819ZM6.14007 15.5909L-0.185507 9.26536L2.64292 6.43693L8.9685 12.7625L6.14007 15.5909ZM-0.185507 6.43693L6.14007 0.111352L8.9685 2.93978L2.64292 9.26536L-0.185507 6.43693ZM6.14007 0.111352C5.55748 0.693951 5.55748 1.6378 6.14007 2.2204L8.9685 -0.608028C9.948 0.37147 9.948 1.96028 8.9685 2.93978L6.14007 0.111352ZM6.14007 2.2204C6.72267 2.803 7.66652 2.803 8.24912 2.2204L5.42069 -0.608028C6.40019 -1.58753 7.989 -1.58753 8.9685 -0.608028L6.14007 2.2204ZM8.24912 2.2204L1.56385 8.90567L-1.26458 6.07724L5.42069 -0.608028L8.24912 2.2204ZM1.56385 8.90567C2.14645 8.32307 2.14645 7.37922 1.56385 6.79662L-1.26458 9.62505C-2.24408 8.64555 -2.24408 7.05674 -1.26458 6.07724L1.56385 8.90567ZM1.56385 6.79662L8.24912 13.4819L5.42069 16.3103L-1.26458 9.62505L1.56385 6.79662Z" fill="#333333" mask="url(#path-1-inside-1)"/>
</svg>
