<svg width="19" height="26" viewBox="0 0 19 26" fill="none" xmlns="http://www.w3.org/2000/svg">
<path d="M9.5 0C4.26167 0 0 4.22409 0 9.41617C0 15.8597 8.50157 25.3192 8.86353 25.7188C9.20351 26.0941 9.7971 26.0934 10.1365 25.7188C10.4984 25.3192 19 15.8597 19 9.41617C18.9999 4.22409 14.7383 0 9.5 0ZM9.5 14.1537C6.86447 14.1537 4.72036 12.0285 4.72036 9.41617C4.72036 6.80388 6.86452 4.67869 9.5 4.67869C12.1355 4.67869 14.2796 6.80393 14.2796 9.41623C14.2796 12.0285 12.1355 14.1537 9.5 14.1537Z" fill="#333333"/>
</svg>
