<svg width="19" height="18" viewBox="0 0 19 18" fill="none" xmlns="http://www.w3.org/2000/svg">
<path d="M16.8556 3.49636H15.5431C15.7162 3.22237 15.8304 2.91481 15.863 2.58954C15.9671 1.55001 15.4196 0.618146 14.4876 0.205005C13.6309 -0.174749 12.6681 -0.0195087 11.9749 0.609271L10.3175 2.11131C9.99473 1.75829 9.53073 1.53642 9.01578 1.53642C8.49991 1.53642 8.03517 1.75899 7.71233 2.11311L6.05286 0.609095C5.35847 -0.0196847 4.39611 -0.174326 3.53978 0.205217C2.60799 0.618393 2.06042 1.55057 2.16481 2.59007C2.19745 2.91509 2.31163 3.22251 2.48473 3.49636H1.17596C0.526472 3.49636 0 4.02287 0 4.67232V6.43628C0 6.76099 0.263254 7.02428 0.587998 7.02428H17.4436C17.7683 7.02428 18.0316 6.76103 18.0316 6.43628V4.67232C18.0316 4.02287 17.5051 3.49636 16.8556 3.49636ZM7.25182 3.30038V3.49636H4.4857C3.75486 3.49636 3.17968 2.81504 3.36222 2.05412C3.44262 1.71902 3.68449 1.43337 3.99733 1.28877C4.42692 1.09021 4.90279 1.15395 5.26359 1.48053L7.25231 3.28305C7.25221 3.28886 7.25182 3.29456 7.25182 3.30038ZM14.6962 2.43342C14.6524 3.04455 14.1004 3.49643 13.4877 3.49643H10.7797V3.30045C10.7797 3.29351 10.7793 3.28664 10.7792 3.2797C11.2297 2.87132 12.2071 1.98552 12.7371 1.50504C13.0384 1.23199 13.4599 1.10454 13.8496 1.22076C14.4087 1.38755 14.7371 1.86306 14.6962 2.43342Z" fill="#DAAFAF"/>
<path d="M1.17578 8.20024V16.824C1.17578 17.4735 1.70225 18 2.35174 18H7.8396V8.20024H1.17578Z" fill="#DAAFAF"/>
<path d="M10.1914 8.20024V18H15.6793C16.3288 18 16.8552 17.4735 16.8552 16.824V8.20024H10.1914Z" fill="#DAAFAF"/>
</svg>
