<svg width="30" height="30" viewBox="0 0 30 30" fill="none" xmlns="http://www.w3.org/2000/svg">
<circle cx="15" cy="15" r="15" fill="#333333"/>
<path d="M15.0781 16.0615C12.7124 16.0615 10.7957 13.7637 10.7957 10.9313C10.7957 8.09924 12.7124 6 15.0781 6C17.4442 6 19.3625 8.09924 19.3625 10.9313C19.3625 13.7637 17.4441 16.0615 15.0781 16.0615ZM8.41659 22.9968C8.41659 22.9968 7.50822 23.0567 7.10812 22.5054C6.89193 22.2076 7.04253 21.6041 7.19037 21.2673L7.55244 20.4421C7.55244 20.4421 8.55377 18.2026 9.69364 16.9049C10.3938 16.1091 11.2266 16.2903 11.7653 16.5491C12.097 16.7084 12.4721 17.1723 12.7463 17.4182C13.124 17.757 13.7909 18.1421 14.8811 18.1638H15.55C16.6396 18.1421 17.3065 17.757 17.684 17.4182C17.9578 17.1724 18.3225 16.694 18.6513 16.5295C19.1457 16.2821 19.8981 16.1298 20.58 16.905C21.7202 18.2028 22.6232 20.4829 22.6232 20.4829L22.9943 21.292C23.1479 21.6265 23.3051 22.227 23.0949 22.5288C22.7199 23.0684 21.8778 22.9969 21.8778 22.9969L8.41659 22.9968Z" fill="white"/>
</svg>
