<svg width="13" height="13" viewBox="0 0 13 13" fill="none" xmlns="http://www.w3.org/2000/svg">
<path d="M12.8408 12.0767L9.71551 8.95143C10.4902 8.00694 10.9571 6.79714 10.9571 5.47857C10.9571 2.45408 8.50306 0 5.47857 0C2.45143 0 0 2.45408 0 5.47857C0 8.50306 2.45143 10.9571 5.47857 10.9571C6.79714 10.9571 8.00429 10.4929 8.94878 9.71816L12.0741 12.8408C12.2863 13.0531 12.6286 13.0531 12.8408 12.8408C13.0531 12.6312 13.0531 12.2863 12.8408 12.0767ZM5.47857 9.86673C3.05633 9.86673 1.08776 7.89816 1.08776 5.47857C1.08776 3.05898 3.05633 1.08776 5.47857 1.08776C7.89816 1.08776 9.86939 3.05898 9.86939 5.47857C9.86939 7.89816 7.89816 9.86673 5.47857 9.86673Z" fill="#333333"/>
</svg>
