<svg width="32" height="32" viewBox="0 0 32 32" fill="none" xmlns="http://www.w3.org/2000/svg">
<path d="M16.1222 31.7561C24.8914 31.7561 32.0002 24.6473 32.0002 15.878C32.0002 7.10884 24.8914 0 16.1222 0C7.35298 0 0.244141 7.10884 0.244141 15.878C0.244141 24.6473 7.35298 31.7561 16.1222 31.7561Z" fill="#29B6F6"/>
<path d="M24.4749 8.73293L21.5009 23.9171C21.5009 23.9171 21.3731 24.611 20.5125 24.611C20.0552 24.611 19.8195 24.3935 19.8195 24.3935L13.3777 19.0481L10.2259 17.4595L6.18101 16.3838C6.18101 16.3838 5.46094 16.1758 5.46094 15.5803C5.46094 15.0842 6.20165 14.8476 6.20165 14.8476L23.1245 8.1248C23.1237 8.12401 23.6413 7.93823 24.0184 7.93903C24.2502 7.93903 24.5146 8.03827 24.5146 8.33598C24.5146 8.53446 24.4749 8.73293 24.4749 8.73293Z" fill="white"/>
<path d="M15.7814 21.0424L13.0615 23.7211C13.0615 23.7211 12.9432 23.8124 12.7852 23.8163C12.7304 23.8179 12.6717 23.8092 12.6113 23.7822L13.3767 19.0466L15.7814 21.0424Z" fill="#B0BEC5"/>
<path d="M21.2575 11.2702C21.1233 11.0955 20.8756 11.0638 20.7009 11.1964L10.2246 17.4658C10.2246 17.4658 11.8966 22.1435 12.1514 22.9533C12.407 23.7638 12.6119 23.7829 12.6119 23.7829L13.3772 19.0473L21.1828 11.8259C21.3575 11.6934 21.3901 11.4449 21.2575 11.2702Z" fill="#CFD8DC"/>
</svg>
