<svg width="20" height="20" viewBox="0 0 20 20" fill="none" xmlns="http://www.w3.org/2000/svg">
<g clip-path="url(#clip0)">
<path d="M7.46137 18.2048C6.5965 18.2048 5.70631 18.1348 4.81077 17.9944C3.23348 17.7469 1.6368 16.9218 1.18499 16.6748L0 16.0269L1.28295 15.605C2.68538 15.1439 3.5385 14.8578 4.59456 14.4098C3.53713 13.8977 2.72216 12.9765 2.32986 11.7857L2.03139 10.8797L2.27614 10.917C2.04406 10.6831 1.8608 10.4457 1.71874 10.2298C1.21353 9.46243 0.946041 8.52477 1.00296 7.72124L1.05911 6.93038L1.53259 7.11379C1.33285 6.7366 1.1885 6.33376 1.10366 5.91155C0.896908 4.88189 1.06994 3.78799 1.59103 2.83141L2.00347 2.07427L2.55507 2.73681C4.2996 4.83245 6.50922 6.07558 9.13174 6.43951C9.02462 5.70113 9.10488 4.98855 9.37054 4.34982C9.67983 3.6061 10.2301 2.97546 10.9613 2.52593C11.7733 2.02682 12.7581 1.78497 13.7342 1.84493C14.7698 1.90856 15.7101 2.29659 16.4568 2.96783C16.8215 2.87307 17.0902 2.7719 17.4534 2.63519C17.6719 2.55294 17.9197 2.45956 18.2298 2.35275L19.3723 1.95907L18.6272 4.08706C18.6764 4.08294 18.727 4.07943 18.78 4.07714L20.0001 4.0219L19.2789 5.00747C19.2376 5.06393 19.2271 5.07995 19.2124 5.10207C19.1543 5.18966 19.082 5.29861 18.0921 6.62032C17.8443 6.95129 17.7206 7.38235 17.7436 7.83431C17.8314 9.55184 17.6206 11.1058 17.1169 12.4528C16.6406 13.7273 15.9023 14.8207 14.923 15.7028C13.7112 16.7941 12.1659 17.5413 10.33 17.9234C9.42944 18.1108 8.46234 18.2048 7.46137 18.2048Z" fill="black"/>
</g>
<defs>
<clipPath id="clip0">
<rect width="20" height="20" fill="white"/>
</clipPath>
</defs>
</svg>
