<svg width="31" height="31" viewBox="0 0 31 31" fill="none" xmlns="http://www.w3.org/2000/svg">
<path d="M28.0927 6.81104H25.9051C26.1937 6.3547 26.3841 5.84247 26.4384 5.30074C26.6118 3.56943 25.6994 2.01742 24.146 1.32935C22.7181 0.696874 21.1135 0.955424 19.9581 2.00264L17.1958 4.50427C16.6579 3.91631 15.8846 3.54679 15.0263 3.54679C14.1665 3.54679 13.392 3.91748 12.8539 4.50726L10.0881 2.00235C8.93079 0.955131 7.32685 0.697578 5.89965 1.3297C4.34665 2.01784 3.43404 3.57037 3.60802 5.30162C3.66243 5.84294 3.85272 6.35494 4.14122 6.81104H1.95994C0.877454 6.81104 0 7.68792 0 8.76957V11.7074C0 12.2482 0.438756 12.6867 0.979997 12.6867H29.0727C29.6139 12.6867 30.0527 12.2483 30.0527 11.7074V8.76957C30.0526 7.68792 29.1752 6.81104 28.0927 6.81104ZM12.0864 6.48462V6.81104H7.47618C6.25811 6.81104 5.29947 5.6763 5.6037 4.40901C5.7377 3.85091 6.14083 3.37516 6.66223 3.13433C7.37821 2.80363 8.17132 2.9098 8.77266 3.4537L12.0872 6.45576C12.087 6.46544 12.0864 6.47494 12.0864 6.48462ZM24.4937 5.04072C24.4207 6.05855 23.5006 6.81115 22.4795 6.81115H17.9662V6.48474C17.9662 6.47318 17.9655 6.46175 17.9654 6.45019C18.7163 5.77003 20.3452 4.29475 21.2286 3.49453C21.7307 3.03978 22.4332 2.8275 23.0826 3.02106C24.0146 3.29885 24.5619 4.09081 24.4937 5.04072Z" fill="white"/>
<path d="M1.95996 14.6452V29.008C1.95996 30.0897 2.83742 30.9666 3.9199 30.9666H13.0663V14.6452H1.95996Z" fill="white"/>
<path d="M16.9863 14.6452V30.9666H26.1328C27.2153 30.9666 28.0927 30.0897 28.0927 29.008V14.6452H16.9863Z" fill="white"/>
</svg>
