<svg width="38" height="28" viewBox="0 0 38 28" fill="none" xmlns="http://www.w3.org/2000/svg">
<path d="M36.3708 22.8591C36.0093 24.7659 34.4676 26.219 32.5608 26.4884C29.5659 26.942 24.5757 27.4878 18.951 27.4878C13.415 27.4878 8.42473 26.942 5.34127 26.4884C3.43449 26.219 1.89276 24.7659 1.53125 22.8591C1.1662 20.7751 0.804688 17.6881 0.804688 13.8781C0.804688 10.068 1.1662 6.98104 1.53125 4.89705C1.89276 2.99026 3.43449 1.53714 5.34127 1.26778C8.33613 0.814119 13.3264 0.268311 18.951 0.268311C24.5757 0.268311 29.4773 0.814119 32.5608 1.26778C34.4676 1.53714 36.0093 2.99026 36.3708 4.89705C36.7359 6.98104 37.1895 10.068 37.1895 13.8781C37.0974 17.6881 36.7359 20.7751 36.3708 22.8591Z" fill="#FF3D00"/>
<path d="M13.5073 20.2293V7.52686L24.3951 13.8781L13.5073 20.2293Z" fill="white"/>
</svg>
