<svg width="20" height="20" viewBox="0 0 40 40" fill="none" xmlns="http://www.w3.org/2000/svg">
<path d="M25.4869 8.00499L22.3746 8C18.8782 8 16.6186 10.3183 16.6186 13.9064V16.6297H13.4894C13.219 16.6297 13 16.8489 13 17.1193V21.065C13 21.3354 13.2192 21.5544 13.4894 21.5544H16.6186V31.5106C16.6186 31.781 16.8375 32 17.1079 32H21.1907C21.4611 32 21.68 31.7808 21.68 31.5106V21.5544H25.3388C25.6092 21.5544 25.8282 21.3354 25.8282 21.065L25.8297 17.1193C25.8297 16.9895 25.778 16.8651 25.6864 16.7733C25.5947 16.6814 25.4699 16.6297 25.3401 16.6297H21.68V14.3212C21.68 13.2116 21.9444 12.6483 23.3898 12.6483L25.4864 12.6475C25.7565 12.6475 25.9755 12.4283 25.9755 12.1582V8.49437C25.9755 8.22446 25.7568 8.00549 25.4869 8.00499Z" fill="white"/>
<circle cx="20" cy="20" r="19" stroke="white" stroke-width="2"/>
</svg>
