<svg width="16" height="13" viewBox="0 0 16 13" fill="none" xmlns="http://www.w3.org/2000/svg">
<path d="M13.1163 6.2177L15.1772 4.15677C15.2877 4.04628 15.2877 3.86768 15.1772 3.75719C15.0667 3.64669 14.8881 3.64669 14.7776 3.75719L12.7167 5.81811L10.6558 3.75719C10.5453 3.64669 10.3667 3.64669 10.2562 3.75719C10.1457 3.86768 10.1457 4.04628 10.2562 4.15677L12.3171 6.2177L10.2562 8.27862C10.1457 8.38912 10.1457 8.56771 10.2562 8.67821C10.3113 8.73331 10.3837 8.761 10.456 8.761C10.5283 8.761 10.6007 8.73331 10.6558 8.67821L12.7167 6.61728L14.7776 8.67821C14.8328 8.73331 14.9051 8.761 14.9774 8.761C15.0498 8.761 15.1221 8.73331 15.1772 8.67821C15.2877 8.56771 15.2877 8.38912 15.1772 8.27862L13.1163 6.2177Z" fill="white"/>
<path d="M8.02668 0.113621C7.75116 -0.042369 7.42448 -0.0372824 7.15348 0.126054C7.14048 0.133684 7.12805 0.142727 7.11674 0.152335L3.28765 3.39166H0.28259C0.126318 3.39166 0 3.51798 0 3.67425V9.04346C0 9.11863 0.0296719 9.19041 0.0827988 9.24325C0.135926 9.29609 0.207421 9.32605 0.28259 9.32605L3.28087 9.32464L7.10798 12.8401C7.12211 12.8531 7.13737 12.8644 7.15348 12.874C7.29251 12.9579 7.44652 13 7.60054 13C7.74663 12.9997 7.89245 12.9621 8.02668 12.8864C8.30899 12.727 8.47769 12.436 8.47769 12.1079V0.892438C8.47769 0.564351 8.30899 0.273284 8.02668 0.113621ZM7.91252 12.1079C7.91252 12.2297 7.85119 12.3368 7.7489 12.3947C7.70509 12.4193 7.59404 12.4668 7.46631 12.402L3.67367 8.91799V7.63051C3.67367 7.47424 3.54735 7.34792 3.39108 7.34792C3.23481 7.34792 3.10849 7.47424 3.10849 7.63051V8.75974L0.56518 8.76087V3.95684H3.10849V5.0872C3.10849 5.24347 3.23481 5.36979 3.39108 5.36979C3.54735 5.36979 3.67367 5.24347 3.67367 5.0872V3.80537L7.46178 0.600806C7.59178 0.532419 7.70481 0.581024 7.7489 0.605892C7.85119 0.663823 7.91252 0.770642 7.91252 0.892438V12.1079Z" fill="white"/>
</svg>
