<?xml version="1.0" encoding="utf-8"?>
<!-- Generator: Adobe Illustrator 23.0.3, SVG Export Plug-In . SVG Version: 6.00 Build 0)  -->
<svg version="1.1" id="Layer_1" xmlns="http://www.w3.org/2000/svg" xmlns:xlink="http://www.w3.org/1999/xlink" x="0px" y="0px"
	 viewBox="0 0 56.69 56.69" style="enable-background:new 0 0 56.69 56.69;" xml:space="preserve">
<style type="text/css">
	.st0{fill:#fff;}
	.st1{fill-rule:evenodd;clip-rule:evenodd;fill:#fff;}
</style>
<g>
	<g>
		<g>
			<path class="st0" d="M28.35,56.67c-15.62,0-28.32-12.7-28.32-28.32c0-15.62,12.7-28.32,28.32-28.32
				c15.62,0,28.32,12.7,28.32,28.32C56.67,43.96,43.96,56.67,28.35,56.67z M28.35,3.07c-13.94,0-25.28,11.34-25.28,25.28
				c0,13.94,11.34,25.28,25.28,25.28c13.94,0,25.28-11.34,25.28-25.28C53.62,14.41,42.29,3.07,28.35,3.07z"/>
		</g>
		<g>
			<path class="st1" d="M23.91,28.48v16.41c0,0.24,0.19,0.43,0.43,0.43h6.1c0.24,0,0.43-0.19,0.43-0.43V28.21h4.42
				c0.22,0,0.41-0.17,0.43-0.39l0.42-5.03c0.02-0.25-0.18-0.46-0.43-0.46h-4.84v-3.57c0-0.84,0.68-1.51,1.51-1.51h3.41
				c0.24,0,0.43-0.19,0.43-0.43V11.8c0-0.24-0.19-0.43-0.43-0.43h-5.75c-3.38,0-6.11,2.74-6.11,6.11v4.85h-3.05
				c-0.24,0-0.43,0.19-0.43,0.43v5.03c0,0.24,0.19,0.43,0.43,0.43h3.05V28.48z"/>
		</g>
	</g>
</g>
</svg>
