<svg width="40" height="40" viewBox="0 0 40 40" fill="none" xmlns="http://www.w3.org/2000/svg">
<rect width="40" height="40" fill="#040001"/>
<path d="M32.0418 16.0001H23.9989V7.95722C23.9989 5.98122 22.3393 4.36377 20.3626 4.36377C18.3858 4.36377 16.7262 5.98122 16.7262 7.95722V16.0001H8.6833C6.7073 16.0001 5.08984 17.6598 5.08984 19.6365C5.08984 21.6132 6.7073 23.2729 8.6833 23.2729H16.7262V31.3158C16.7262 33.2918 18.3858 34.9092 20.3626 34.9092C22.3393 34.9092 23.9989 33.2918 23.9989 31.3158V23.2729H32.0418C34.0178 23.2729 35.6353 21.6132 35.6353 19.6365C35.6353 17.6598 34.0178 16.0001 32.0418 16.0001Z" fill="white"/>
</svg>
