<svg width="34" height="33" viewBox="0 0 34 33" fill="none" xmlns="http://www.w3.org/2000/svg">
<path d="M28.3242 0H4.99219C2.32695 0 0.158203 2.16875 0.158203 4.83398V28.166C0.158203 30.8313 2.32695 33 4.99219 33H28.3242C30.9895 33 33.1582 30.8313 33.1582 28.166V4.83398C33.1582 2.16875 30.9895 0 28.3242 0ZM11.8242 26.168H7.95703V12.6328H11.8242V26.168ZM11.8242 10.6992H7.95703V6.83203H11.8242V10.6992ZM25.3594 26.168H21.4922V18.4336C21.4922 17.3676 20.6246 16.5 19.5586 16.5C18.4926 16.5 17.625 17.3676 17.625 18.4336V26.168H13.7578V12.6328H17.625V13.3617C18.6381 13.0467 19.2962 12.6328 20.5254 12.6328C23.1481 12.6356 25.3594 14.9884 25.3594 17.7689V26.168Z" fill="white"/>
</svg>
