<svg width="33" height="33" viewBox="0 0 33 33" fill="none" xmlns="http://www.w3.org/2000/svg">
<path d="M28.166 0H4.83398C2.16875 0 0 2.16875 0 4.83398V28.166C0 30.8313 2.16875 33 4.83398 33H28.166C30.8313 33 33 30.8313 33 28.166V4.83398C33 2.16875 30.8313 0 28.166 0ZM16.5645 25.1367C11.7665 25.1367 7.86328 21.2335 7.86328 16.4355C7.86328 11.6376 11.7665 7.73438 16.5645 7.73438C21.3624 7.73438 25.2656 11.6376 25.2656 16.4355C25.2656 21.2335 21.3624 25.1367 16.5645 25.1367ZM26.2324 9.66797C24.6332 9.66797 23.332 8.36682 23.332 6.76758C23.332 5.16833 24.6332 3.86719 26.2324 3.86719C27.8317 3.86719 29.1328 5.16833 29.1328 6.76758C29.1328 8.36682 27.8317 9.66797 26.2324 9.66797Z" fill="white"/>
<path d="M16.5 10C12.9163 10 10 12.9163 10 16.5C10 20.0837 12.9163 23 16.5 23C20.0837 23 23 20.0837 23 16.5C23 12.9163 20.0837 10 16.5 10Z" fill="white"/>
</svg>
