<svg width="102" height="102" viewBox="0 0 102 102" fill="none" xmlns="http://www.w3.org/2000/svg">
<path fill-rule="evenodd" clip-rule="evenodd" d="M51 0.999985C78.6143 0.999985 101 23.3857 101 51C101 78.6142 78.6142 101 51 101C23.3857 101 0.999969 78.6142 0.999969 51C0.999969 23.3857 23.3857 0.999985 51 0.999985Z" stroke="#F2F2F2" stroke-width="2"/>
<path fill-rule="evenodd" clip-rule="evenodd" d="M64.3188 52.4271C63.2843 53.1941 46.3674 64.6771 46.3674 64.6771C45.3918 65.3485 44.0829 64.9999 44.0829 63.0405V38.919C44.0829 36.9464 45.3031 36.6754 46.3674 37.2825L64.3188 49.5326C65.3238 50.2377 65.3533 51.6601 64.3188 52.4271ZM45.9755 62.2366L63.0085 50.9799L45.9755 39.723C45.9755 41.5199 45.9755 61.7655 45.9755 62.2366Z" fill="white"/>
</svg>
