<svg width="80" height="80" viewBox="0 0 80 80" fill="none" xmlns="http://www.w3.org/2000/svg">
<g clip-path="url(#clip0)">
<path d="M39.9998 0C24.4589 0 11.8154 12.6434 11.8154 28.1845V60.2159H14.1707V28.1845C14.1707 13.9422 25.7576 2.35531 40 2.35531C54.2423 2.35531 65.8292 13.9422 65.8292 28.1845V60.2159H68.1845V28.1845C68.1843 12.6434 55.5409 0 39.9998 0Z" fill="#C49636"/>
<path d="M24.6905 20.7197V40.2747H24.6908C24.6908 45.4807 27.3035 50.0871 31.2855 52.8541V58.5133L10.1972 64.6446C7.03283 65.6057 4.90674 68.4736 4.90674 71.7807V79.9999H7.26205V71.7805C7.26205 69.5177 8.71658 67.5555 10.8683 66.9021L33.641 60.2813V54.2032C34.2261 54.4707 34.8274 54.6993 35.4403 54.8904C35.446 54.8921 35.4514 54.8939 35.4572 54.8957C35.5541 54.9258 35.6514 54.9546 35.7489 54.9827C35.7821 54.9922 35.8152 55.0021 35.8485 55.0114C35.9289 55.0341 36.0094 55.0557 36.0903 55.0769C36.1414 55.0904 36.1924 55.1038 36.2438 55.1168C36.3122 55.1341 36.3808 55.1508 36.4496 55.1672C36.5139 55.1827 36.5783 55.1975 36.643 55.2119C36.7025 55.2252 36.7621 55.2383 36.8217 55.2508C36.8956 55.2664 36.97 55.2814 37.0442 55.296C37.0972 55.3063 37.15 55.3168 37.203 55.3264C37.2844 55.3414 37.366 55.3557 37.4477 55.3694C37.4955 55.3775 37.5435 55.3858 37.5913 55.3933C37.6781 55.4071 37.7652 55.4197 37.8525 55.4321C37.8966 55.4383 37.9406 55.4447 37.9849 55.4507C38.0756 55.4627 38.1669 55.4735 38.2583 55.4838C38.3 55.4885 38.3417 55.4936 38.3835 55.498C38.4766 55.5078 38.57 55.5163 38.6635 55.5243C38.7041 55.5277 38.7447 55.5319 38.7853 55.535C38.8802 55.5424 38.9755 55.5483 39.0708 55.5543C39.1103 55.5566 39.1497 55.5597 39.1894 55.5618C39.2888 55.5669 39.3886 55.5705 39.4886 55.5738C39.5239 55.575 39.5592 55.5769 39.5946 55.5779C39.7292 55.5813 39.8644 55.5833 40.0002 55.5833C40.1358 55.5833 40.2708 55.5814 40.4058 55.5779C40.4411 55.5769 40.4764 55.575 40.5117 55.5738C40.6116 55.5705 40.7116 55.5671 40.811 55.5618C40.8505 55.5597 40.8899 55.5566 40.9296 55.5543C41.0249 55.5486 41.1202 55.5427 41.215 55.535C41.2556 55.5318 41.2964 55.5277 41.3369 55.5243C41.4305 55.5161 41.5239 55.5077 41.6169 55.498C41.6586 55.4936 41.7003 55.4885 41.7421 55.4838C41.8335 55.4735 41.9245 55.4627 42.0155 55.4507C42.0595 55.4449 42.1038 55.4383 42.1478 55.4321C42.2352 55.4197 42.3222 55.4071 42.4091 55.3933C42.4571 55.3857 42.5049 55.3774 42.5527 55.3694C42.6346 55.3557 42.716 55.3414 42.7974 55.3264C42.8505 55.3166 42.9031 55.3063 42.9561 55.296C43.0305 55.2814 43.1047 55.2664 43.1786 55.2508C43.2383 55.2383 43.2978 55.2252 43.3574 55.2119C43.4221 55.1974 43.4864 55.1824 43.5508 55.1672C43.6196 55.151 43.6881 55.1343 43.7566 55.1168C43.8078 55.1038 43.8589 55.0904 43.91 55.0769C43.9908 55.0557 44.0714 55.0341 44.1519 55.0114C44.1852 55.0021 44.2183 54.9922 44.2514 54.9827C44.3489 54.9546 44.4463 54.9257 44.5431 54.8957C44.5488 54.8939 44.5542 54.8921 44.5599 54.8904C45.1728 54.6993 45.7741 54.4707 46.3592 54.2032V59.3972H48.7146V52.8541C52.6966 50.0871 55.3092 45.4807 55.3092 40.2747V34.3279L24.6905 20.7197ZM52.9538 40.2747C52.9538 46.0664 49.1328 50.9819 43.8794 52.6344C43.8547 52.6421 43.8299 52.6496 43.8053 52.6572C43.6308 52.7111 43.4545 52.7611 43.2771 52.8077C43.2569 52.8129 43.2371 52.8188 43.2167 52.8239C43.0288 52.8722 42.8389 52.9157 42.6477 52.9555C42.6053 52.9643 42.5625 52.9721 42.5202 52.9805C42.3695 53.0103 42.2181 53.0374 42.0658 53.0619C42.0142 53.0702 41.9628 53.0789 41.9113 53.0866C41.7239 53.1144 41.5355 53.1391 41.3456 53.1586C41.312 53.1621 41.2785 53.1643 41.2449 53.1674C41.0817 53.183 40.9177 53.1955 40.7528 53.2049C40.6988 53.208 40.6447 53.211 40.5905 53.2133C40.3946 53.2221 40.198 53.2282 40 53.2282C39.8021 53.2282 39.6055 53.2221 39.4095 53.2133C39.3553 53.2108 39.3014 53.208 39.2472 53.2049C39.0824 53.1953 38.9183 53.1828 38.7552 53.1674C38.7216 53.1641 38.6878 53.1621 38.6544 53.1586C38.4646 53.1389 38.2763 53.1144 38.0889 53.0866C38.0372 53.0789 37.9858 53.0703 37.9342 53.0619C37.7819 53.0374 37.6305 53.0103 37.4799 52.9805C37.4374 52.9722 37.3947 52.9643 37.3524 52.9555C37.1611 52.9157 36.9714 52.8721 36.7833 52.8239C36.7631 52.8188 36.7433 52.813 36.723 52.8077C36.5453 52.7613 36.3692 52.7111 36.1946 52.6572C36.1697 52.6497 36.145 52.6422 36.1205 52.6344C30.8672 50.9818 27.0461 46.0663 27.0461 40.2747V24.3439L52.9539 35.8585V40.2747H52.9538Z" fill="#C49636"/>
<path d="M26.3464 11.1452L25.39 13.2974L53.6523 25.8573L54.6087 23.7052L26.3464 11.1452Z" fill="#C49636"/>
<path d="M26.3481 16.3022L25.3917 18.4543L53.6539 31.0143L54.6104 28.8622L26.3481 16.3022Z" fill="#C49636"/>
<path d="M62.4535 30.3826H60.0981V75.2893H62.4535V30.3826Z" fill="#C49636"/>
<path d="M62.4535 77.6448H60.0981V80.0001H62.4535V77.6448Z" fill="#C49636"/>
<path d="M19.1167 38.0767H16.7614V57.5467H19.1167V38.0767Z" fill="#C49636"/>
<path d="M24.0628 49.3816H21.7075V55.1913H24.0628V49.3816Z" fill="#C49636"/>
<path d="M54.6025 55.9763H52.2472V75.2894H54.6025V55.9763Z" fill="#C49636"/>
<path d="M54.6025 77.6448H52.2472V80.0001H54.6025V77.6448Z" fill="#C49636"/>
<path d="M69.7892 64.6404L66.315 63.6301L65.6573 65.8918L69.1181 66.8978C71.2833 67.5554 72.7378 69.5178 72.7378 71.7806V80H75.0931V71.7806C75.0931 68.4736 72.967 65.6056 69.7892 64.6404Z" fill="#C49636"/>
</g>
<defs>
<clipPath id="clip0">
<rect width="80" height="80" fill="white"/>
</clipPath>
</defs>
</svg>
