<svg width="80" height="80" viewBox="0 0 80 80" fill="none" xmlns="http://www.w3.org/2000/svg">
<path d="M40 0C26.9037 0 16.25 10.6537 16.25 23.75V48.7561C16.25 50.824 17.9327 52.5061 20 52.5061H31.25V55.0073L25.0049 55.0061C20.1788 55.0061 16.2524 58.9325 16.2524 63.7585C16.2524 63.8098 16.2762 63.8525 16.2811 63.9014C16.2915 63.9862 16.3037 64.0674 16.3312 64.1486C16.3574 64.231 16.3965 64.3036 16.4398 64.3787C16.4648 64.4214 16.4709 64.469 16.5027 64.5087L22.5073 72.5024H21.2927C21.2836 72.5024 21.2762 72.4976 21.2677 72.4976C21.0925 72.4976 20.9277 72.5336 20.7751 72.5989C20.3235 72.7863 20.0049 73.2312 20.0049 73.7524C20.0049 73.775 20.0165 73.7915 20.0177 73.8135V78.75C20.0177 79.4415 20.5762 80 21.2677 80H58.7689C59.4598 80 60.0189 79.4415 60.0189 78.75V73.7476C60.0189 73.056 59.4598 72.4976 58.7689 72.4976C58.7598 72.4976 58.7524 72.5024 58.7439 72.5024H57.5085L63.4973 64.5074C63.5272 64.4678 63.5352 64.4189 63.5602 64.3762C63.6023 64.3024 63.6401 64.2328 63.6676 64.1498C63.6951 64.0662 63.7085 63.9825 63.7189 63.8965C63.725 63.8489 63.7463 63.8074 63.7463 63.7585C63.7463 58.9349 59.8199 55.0085 54.9963 55.0085L48.75 55.0061V52.5061H60C62.0673 52.5061 63.75 50.824 63.75 48.7561V48.7524V48.75V23.75C63.75 10.6537 53.0963 0 40 0ZM18.75 23.75C18.75 16.7065 22.2089 10.4724 27.5 6.60278V16.2463V16.2476V16.25C27.5 21.3397 23.6737 25.545 18.75 26.1639V23.75ZM20 50.0061C19.3103 50.0061 18.75 49.4464 18.75 48.7561V28.6865C19.1736 28.645 19.5898 28.5815 20 28.4985V32.5061C20 40.0311 24.1815 46.5936 30.3387 50.0061H20ZM57.5201 75.0024V77.5H22.5189V75.0024H25.0073C25.0073 75.0024 25.0098 75.0037 25.0122 75.0037C25.0153 75.0037 25.0177 75.0024 25.0201 75.0024H55.0012C55.0037 75.0024 55.0061 75.0037 55.0085 75.0037L55.014 75.0024H57.5201ZM54.9976 57.5073C58.3173 57.5073 61.015 60.1178 61.2115 63.3899L54.3848 72.5024H25.6348L18.7885 63.3911C18.9838 60.1178 21.6827 57.5061 25.0049 57.5061L32.5 57.5073C33.1915 57.5073 33.75 56.9489 33.75 56.2573V51.4911C35.719 52.1423 37.8162 52.5061 40 52.5061C42.1838 52.5061 44.281 52.1423 46.25 51.4911V56.2561C46.25 56.9476 46.8085 57.5061 47.5 57.5061L54.9976 57.5073ZM40 50.0061C30.3497 50.0061 22.5 42.1564 22.5 32.5061V27.699C25.5975 26.3397 28.031 23.7622 29.2126 20.5762C33.241 25.506 44.0302 29.1376 57.5 29.8639V32.5061C57.5 42.1564 49.6503 50.0061 40 50.0061ZM61.25 48.75V48.7524V48.7561C61.25 49.4464 60.6897 50.0061 60 50.0061H49.6613C55.8197 46.5936 60 40.0311 60 32.5061V29.964C60.415 29.975 60.8313 29.9835 61.25 29.989V48.75ZM61.25 27.4878C60.4053 27.4762 59.5715 27.4573 58.7524 27.4237H58.75H58.7488C41.3989 26.7352 30 21.3263 30 16.25V16.2476V16.2463V5.00977C32.984 3.41125 36.3849 2.5 40 2.5C51.7175 2.5 61.25 12.0325 61.25 23.75V27.4878Z" fill="#C49636"/>
</svg>
