<svg width="80" height="80" viewBox="0 0 80 80" fill="none" xmlns="http://www.w3.org/2000/svg">
<path d="M16.2188 44.953H16.2969C16.9844 44.953 17.5469 44.3905 17.5469 43.703C17.5469 43.4061 17.4375 43.1093 17.2344 42.8749C17.0156 42.6249 16.7031 42.4687 16.375 42.453C15.6875 42.3905 15.0781 42.8905 15.0156 43.5936C14.9531 44.2811 15.4531 44.8905 16.1563 44.953H16.2188Z" fill="#C49636"/>
<path d="M7.89062 62.3438C4.39062 76.4844 25.9844 79.5625 29.6719 67.3594C30.7969 63.4219 28.8125 59.8594 26.9062 56.5469C22.3437 48.6562 22.1719 47.6562 22.8437 41C23.8437 31.9062 27.625 24.2656 34.6875 19.7187C39.4219 17.8594 37.0781 15.9375 35.8281 16.3281C35 16.6719 34.2031 17.0781 33.4375 17.5625C25.1562 22 17.1094 29.4844 15.8437 39.1406C16.7969 41.0469 18.4531 39.625 18.5 38.0469C19.5625 34.0937 21.4844 30.6406 24.2344 27.6406C21.9844 31.8594 20.625 36.875 20.2187 42.4531C18.9375 50.8281 24.4062 55.8594 27.0156 62.2344C31 76.2031 5.21875 75.5938 10.8125 61.6719C12.9844 56.8594 16.0937 53.3906 17.1094 48.5C17.0312 47.5156 15.7344 47.0469 15 47.75C14.2187 49.0156 14.0625 50.4687 13.2187 51.9219C11.4219 55.6406 9.0625 58.6719 7.89062 62.3438Z" fill="#C49636"/>
<path d="M20.9688 66.7188C20.2813 67.25 19.4375 67.5313 18.5781 67.5C18.5469 67.5 18.5 67.5 18.4688 67.5C17.7813 67.4844 17.2031 68.0313 17.1875 68.7188C17.1719 69.4063 17.7188 69.9844 18.4063 70H18.6094C19.5781 70 20.5469 69.7969 21.4219 69.3594C22.1719 69 22.8438 68.4844 23.375 67.8438C23.8438 67.2969 24.2188 66.6719 24.4844 66C24.7188 65.4375 24.8438 64.8438 24.8594 64.2344C24.8594 64.0156 24.8438 63.7813 24.7813 63.5625C24.6406 63 24.1406 62.625 23.5625 62.625C22.875 62.625 22.3125 63.1875 22.3125 63.875C22.3125 63.9844 22.3281 64.0781 22.3438 64.1719V64.2344C22.3281 64.5313 22.2656 64.8125 22.1406 65.0938C21.9219 65.7344 21.5156 66.2969 20.9688 66.7188Z" fill="#C49636"/>
<path d="M53.7344 28.7031H53.8125C54.5 28.7031 55.0625 28.1406 55.0625 27.4531C55.0625 26.7656 54.5 26.2031 53.8125 26.2031C53.1563 26.2031 52.6094 26.7188 52.5625 27.375C52.5156 28.0625 53.0469 28.6562 53.7344 28.7031Z" fill="#C49636"/>
<path d="M48.4531 56.2031C57.3281 62.9844 71.1719 55.3281 66.5781 44.4844C64.75 40.1875 61.2813 35.9844 60.1875 31.2187C59.5313 20.1719 63.3125 9.15625 72.1875 3.46875C76.9219 1.60937 74.5781 -0.312504 73.3125 0.0781205C72.4844 0.421871 71.6719 0.82812 70.9219 1.3125C62.6406 5.74999 54.5938 13.2344 53.3281 22.8906C54.1406 24.6562 55.8906 23.5469 55.9375 22C57 17.9531 58.9375 14.4531 61.7188 11.3906C59.5 15.5625 58.1406 20.5 57.7188 25.9844C56.0938 36.375 64.4844 41.7031 64.9844 48.4844C64.3125 60.7656 43.2031 57.4219 48.2188 45.5937C50.3594 40.9531 53.0625 37.5937 54.5 32.9687C55.0469 31.6719 53.4688 30.5937 52.4844 31.5156C51.4844 33.5625 50.7656 35.9844 49.3438 38.2344C45.3906 44.7031 42.3438 50.9375 48.4531 56.2031Z" fill="#C49636"/>
<path d="M58.4844 50.4688C57.7969 51 56.9531 51.2813 56.0938 51.25C56.0625 51.25 56.0156 51.25 55.9844 51.25C55.2969 51.2344 54.7188 51.7813 54.7031 52.4688C54.6875 53.1563 55.2344 53.7344 55.9219 53.75H56.125C57.0938 53.75 58.0625 53.5313 58.9375 53.1094C59.6875 52.75 60.3594 52.2188 60.8906 51.5938C61.3594 51.0469 61.7344 50.4219 62 49.75C62.2344 49.1875 62.3594 48.5938 62.375 47.9844C62.375 47.7656 62.3438 47.5313 62.2969 47.3125C62.1563 46.75 61.6563 46.375 61.0781 46.375C60.3906 46.375 59.8281 46.9375 59.8281 47.625C59.8281 47.7188 59.8438 47.8281 59.8594 47.9219V47.9844C59.8438 48.2813 59.7813 48.5625 59.6563 48.8438C59.4219 49.4844 59.0156 50.0313 58.4844 50.4688Z" fill="#C49636"/>
<path d="M78.75 50.0468C77.5 50.1093 73.5781 49.8749 72.4062 50.2656C69.2188 51.0937 67.1875 54.4843 68 57.7812C68.75 60.0781 69.7344 61.3749 69.8594 63.1718C71.0625 71.4843 63.9844 77.3593 56.0781 77.4843C47.375 77.2343 41.2031 71.0156 42.75 62.7499C42.9219 61.3124 43.6875 60.1718 44.4844 58.0781C45.3281 55.2656 44.1094 52.2968 41.5313 50.8281C40.375 50.0937 38.4531 49.9843 38.1563 50.0468C36.6563 50.0468 30.5313 50.0468 30.3906 50.0468C27.6563 50.3749 27.0625 52.4687 29.4375 56.0624C30.8594 58.7343 31.5156 60.2031 31.8594 61.0781C34.5156 69.0468 28.6406 77.1718 18.5781 77.4843C9.62501 77.2187 3.39063 70.6718 5.37501 62.1093C6.35938 57.4843 13.1875 50.9687 7.18751 50.0312C6.87501 50.0312 1.42188 50.0312 1.26563 50.0312C0.0937578 49.9999 -0.499992 51.6718 0.625008 52.3593C0.843758 52.7343 6.81251 52.4531 7.18751 52.5312C4.71876 57.0312 3.42188 59.7031 3.06251 60.9999C0.296883 71.5312 7.87501 79.5624 18.2969 79.9843C28.5469 80.0312 36.6875 71.8749 34.6719 61.9531C34.1406 59.4374 33.1563 57.7656 30.375 52.5468C36.2188 52.8281 41.9219 51.1093 42.2344 56.2968C42.2188 57.9218 40.6094 60.1718 40.5 61.2812C37.8906 71.8124 45.6094 79.5781 55.8125 79.9843C64.3906 80.0937 72.0469 74.0312 72.4688 65.8124C72.7969 62.4218 71.5781 60.1718 70.3594 56.7968C70.25 52.3281 73.5312 52.4218 77.8906 52.5468C80.5938 52.9218 80.5 50.1718 78.75 50.0468Z" fill="#C49636"/>
<path d="M58.75 65C59.4404 65 60 64.4404 60 63.75C60 63.0596 59.4404 62.5 58.75 62.5C58.0596 62.5 57.5 63.0596 57.5 63.75C57.5 64.4404 58.0596 65 58.75 65Z" fill="#C49636"/>
<path d="M58.75 70C59.4404 70 60 69.4404 60 68.75C60 68.0596 59.4404 67.5 58.75 67.5C58.0596 67.5 57.5 68.0596 57.5 68.75C57.5 69.4404 58.0596 70 58.75 70Z" fill="#C49636"/>
<path d="M53.75 72.5C54.4404 72.5 55 71.9404 55 71.25C55 70.5596 54.4404 70 53.75 70C53.0596 70 52.5 70.5596 52.5 71.25C52.5 71.9404 53.0596 72.5 53.75 72.5Z" fill="#C49636"/>
<path d="M53.75 68.75C54.4404 68.75 55 68.1904 55 67.5C55 66.8096 54.4404 66.25 53.75 66.25C53.0596 66.25 52.5 66.8096 52.5 67.5C52.5 68.1904 53.0596 68.75 53.75 68.75Z" fill="#C49636"/>
</svg>
