<svg width="30" height="30" viewBox="0 0 30 30" fill="none" xmlns="http://www.w3.org/2000/svg">
<path fill-rule="evenodd" clip-rule="evenodd" d="M14.9999 28.0643C7.78439 28.0643 1.93558 22.2155 1.93558 15C1.93558 7.78451 7.78439 1.93569 14.9999 1.93569C22.215 1.93569 28.0642 7.78451 28.0642 15C28.0642 22.2155 22.215 28.0643 14.9999 28.0643ZM15 0C6.71542 0 0 6.71542 0 15C0 23.2846 6.71542 30 15 30C23.2842 30 30 23.2846 30 15C30 6.71542 23.2842 0 15 0Z" fill="#F2F2F2"/>
<path fill-rule="evenodd" clip-rule="evenodd" d="M13.119 23.2076H16.5761V14.9303H18.9879L19.2452 12.1589H16.5761V10.5803C16.5761 9.92687 16.7133 9.66875 17.3741 9.66875H19.2452V6.79247H16.8512C14.2788 6.79247 13.119 7.87578 13.119 9.94927V12.1589H11.3207V14.9648H13.119V23.2076Z" fill="#F2F2F2"/>
</svg>
