<svg width="30" height="30" viewBox="0 0 30 30" fill="none" xmlns="http://www.w3.org/2000/svg">
<path fill-rule="evenodd" clip-rule="evenodd" d="M15 28.0643C7.78455 28.0643 1.93573 22.2155 1.93573 15C1.93573 7.78451 7.78455 1.93569 15 1.93569C22.2152 1.93569 28.0643 7.78451 28.0643 15C28.0643 22.2155 22.2152 28.0643 15 28.0643ZM15 0C6.71542 0 0 6.71542 0 15C0 23.2846 6.71542 30 15 30C23.2842 30 30 23.2846 30 15C30 6.71542 23.2842 0 15 0Z" fill="#F2F2F2"/>
<path fill-rule="evenodd" clip-rule="evenodd" d="M20.1511 13.5849H21.1698V11.5471H23.2076V10.5284H21.1698V8.49057H20.1511V10.5284H18.1133V11.5471H20.1511V13.5849Z" fill="#F2F2F2"/>
<path fill-rule="evenodd" clip-rule="evenodd" d="M13.1469 17.2518C15.0016 17.2518 16.1068 18.4024 16.1068 19.6097C16.1068 20.8753 15.0752 21.8647 12.9374 21.8647C11.2661 21.8647 10.0591 20.8105 10.0591 19.5442C10.0591 18.3038 11.4756 17.2336 13.1469 17.2518ZM10.9951 11.7225C10.8013 10.2546 11.5537 9.1314 12.6757 9.16487C13.7966 9.19833 14.7567 10.4027 14.9508 11.8699C15.1441 13.3377 14.4982 14.2819 13.3773 14.2484C12.2554 14.2146 11.1884 13.1903 10.9951 11.7225ZM12.9256 22.6415C16.2326 22.6415 17.5472 20.896 17.5472 19.4616C17.5472 18.2935 17.1086 17.5298 15.7829 16.5405C14.4383 15.5635 14.1094 15.0121 15.3933 14.0234C16.1168 13.4663 16.6229 12.7236 16.6229 11.8072C16.6229 10.8086 16.2129 9.90253 15.4423 9.4625H16.535L17.4646 8.49057H13.3027C10.7042 8.49057 9.42957 10.0417 9.42957 11.7481C9.42957 13.4919 10.6309 14.8661 12.9764 14.8661C12.6129 15.597 12.7587 16.2727 13.3535 16.7551C9.34772 16.7551 8.4906 18.506 8.4906 19.855C8.4906 21.6027 10.5072 22.6415 12.9256 22.6415Z" fill="#F2F2F2"/>
</svg>
