<svg width="30" height="30" viewBox="0 0 30 30" fill="none" xmlns="http://www.w3.org/2000/svg">
<path fill-rule="evenodd" clip-rule="evenodd" d="M15 28.0643C7.78455 28.0643 1.93573 22.2155 1.93573 15C1.93573 7.7845 7.78455 1.93568 15 1.93568C22.2152 1.93568 28.0643 7.7845 28.0643 15C28.0643 22.2155 22.2152 28.0643 15 28.0643ZM15 0C6.71542 0 0 6.71542 0 15C0 23.2846 6.71542 30 15 30C23.2842 30 30 23.2846 30 15C30 6.71542 23.2842 0 15 0Z" fill="#F2F2F2"/>
<path fill-rule="evenodd" clip-rule="evenodd" d="M18.2375 8.93927C18.2375 8.69725 18.4461 8.50132 18.7045 8.50132H20.2777C20.5354 8.50132 20.7447 8.69725 20.7447 8.93927V10.4501C20.7447 10.6921 20.5354 10.888 20.2777 10.888H18.7045C18.4461 10.888 18.2375 10.6921 18.2375 10.4501V8.93927ZM14.707 10.8313C15.7578 10.8313 16.7069 11.2355 17.3899 11.8868H22.0748V10.0913H22.0755C22.0755 8.58188 20.7721 7.35849 19.1647 7.35849H11.2107V10.804H10.6142V7.35849H10.2693C10.2467 7.35849 10.2246 7.35917 10.202 7.35986V10.804H9.60556V7.43051C9.46089 7.4626 9.32023 7.5039 9.18538 7.55511V10.804H8.58818V7.86129C7.84486 8.3559 7.35852 9.17002 7.35852 10.0913V11.8868H12.0249C12.7079 11.2355 13.6569 10.8313 14.707 10.8313Z" fill="#F2F2F2"/>
<path fill-rule="evenodd" clip-rule="evenodd" d="M14.7263 16.8088C13.571 16.8088 12.6349 15.8722 12.6349 14.7172C12.6349 13.5617 13.571 12.6251 14.7263 12.6251C15.8815 12.6251 16.8177 13.5617 16.8177 14.7172C16.8177 15.8722 15.8815 16.8088 14.7263 16.8088ZM16.5805 12.5893C16.3727 12.4077 16.1383 12.2552 15.8844 12.1396C15.5284 11.9776 15.1327 11.8868 14.7167 11.8868C14.3011 11.8868 13.9058 11.9776 13.5498 12.1396C13.2955 12.2552 13.0608 12.4077 12.8537 12.5893C12.2615 13.1085 11.8867 13.8699 11.8867 14.7171C11.8867 16.2776 13.1562 17.5472 14.7167 17.5472C16.2777 17.5472 17.5471 16.2776 17.5471 14.7171C17.5471 13.8699 17.1723 13.1085 16.5805 12.5893Z" fill="#F2F2F2"/>
<path fill-rule="evenodd" clip-rule="evenodd" d="M10.2693 22.6415H19.165C20.7724 22.6415 22.0755 21.3226 22.0755 19.6963V13.0189H17.7761C18.2141 13.6415 18.4733 14.4032 18.4733 15.2256C18.4733 17.3296 16.7875 19.0354 14.7072 19.0354C12.6277 19.0354 10.9418 17.3296 10.9418 15.2256C10.9418 14.4032 11.2002 13.6415 11.639 13.0189H7.35852V19.6963C7.35852 21.3226 8.662 22.6415 10.2693 22.6415Z" fill="#F2F2F2"/>
</svg>
