<svg width="20" height="20" viewBox="0 0 20 20" fill="none" xmlns="http://www.w3.org/2000/svg">
<path fill-rule="evenodd" clip-rule="evenodd" d="M9.9995 15.0019C7.23807 15.0019 4.9995 12.7633 4.9995 10.0019C4.9995 7.24046 7.23807 5.00188 9.9995 5.00188C12.7609 5.00188 14.9995 7.24046 14.9995 10.0019C14.9995 12.7633 12.7609 15.0019 9.9995 15.0019ZM9.99849 13.0009C11.6553 13.0009 12.9985 11.6577 12.9985 10.0009C12.9985 8.34402 11.6553 7.00088 9.99849 7.00088C8.34164 7.00088 6.99849 8.34402 6.99849 10.0009C6.99849 11.6577 8.34164 13.0009 9.99849 13.0009Z" fill="white"/>
<path d="M15.9992 5.00025C15.9992 5.55254 15.5515 6.00025 14.9992 6.00025C14.447 6.00025 13.9992 5.55254 13.9992 5.00025C13.9992 4.44797 14.447 4.00025 14.9992 4.00025C15.5515 4.00025 15.9992 4.44797 15.9992 5.00025Z" fill="white"/>
<path fill-rule="evenodd" clip-rule="evenodd" d="M14 0H6C2.68629 0 0 2.68629 0 6V14C0 17.3137 2.68629 20 6 20H14C17.3137 20 20 17.3137 20 14V6C20 2.68629 17.3137 0 14 0ZM1.99887 6.00125C1.99887 3.79212 3.78973 2.00125 5.99887 2.00125H13.9989C16.208 2.00125 17.9989 3.79212 17.9989 6.00125V14.0013C17.9989 16.2104 16.208 18.0013 13.9989 18.0013H5.99887C3.78973 18.0013 1.99887 16.2104 1.99887 14.0013V6.00125Z" fill="white"/>
</svg>
