<svg width="21" height="15" viewBox="0 0 21 15" fill="none" xmlns="http://www.w3.org/2000/svg">
<path fill-rule="evenodd" clip-rule="evenodd" d="M19.7107 13.2452C20.3513 12.1473 20.625 10.3771 20.625 7.49738C20.625 4.62917 20.3539 2.8692 19.7064 1.7419C19.0576 0.571278 18.2881 0.199717 16.7609 0.110532C15.7183 0.0398646 13.1271 0 10.315 0C7.49682 0 4.90448 0.0398497 3.85407 0.111086C2.33542 0.19993 1.56573 0.572311 0.911186 1.74619C0.273172 2.8696 0 4.63816 0 7.50787C0 10.3613 0.274495 12.1388 0.916792 13.2585C1.56282 14.4172 2.32025 14.7851 3.85182 14.8927C4.95258 14.9571 7.69164 15 10.315 15C12.9325 15 15.6702 14.9571 16.7609 14.8934C18.3066 14.7852 19.0638 14.4167 19.7107 13.2452ZM16.6419 1.98297C17.5972 2.0388 17.7744 2.12466 18.0772 2.67271C18.518 3.43617 18.7491 4.93028 18.7491 7.50905C18.7491 10.0683 18.5168 11.5706 18.0792 12.3209C17.7754 12.8706 17.5995 12.9562 16.6398 13.0235C15.6074 13.0837 12.8962 13.1262 10.3141 13.1262C7.72605 13.1262 5.01351 13.0837 3.97128 13.0228C3.02344 12.9561 2.84498 12.8695 2.54787 12.3366C2.10737 11.5685 1.87406 10.0578 1.87406 7.49855C1.87406 4.94085 2.10613 3.43841 2.54428 2.66688C2.84601 2.1258 3.02572 2.03886 3.97134 1.98351C4.97257 1.91565 7.54054 1.87618 10.3141 1.87618C13.0816 1.87618 15.6484 1.91566 16.6419 1.98297ZM8.43726 4.68926L13.1248 7.50176L8.43726 10.3143V4.68926Z" fill="black"/>
</svg>
