<svg width="48" height="43" viewBox="0 0 48 43" fill="none" xmlns="http://www.w3.org/2000/svg">
<path opacity="0.5" d="M35.9564 18.1325C33.9782 17.5569 32.4655 16.4632 31.4182 14.8514C30.2545 13.3548 29.6727 11.5127 29.6727 9.32531C29.6727 6.56225 30.5455 4.31727 32.2909 2.59036C34.0364 0.863456 36.1891 2.78215e-06 38.7491 3.00596e-06C41.5418 3.25011e-06 43.8109 0.863456 45.5564 2.59036C47.1855 4.4324 48 6.67738 48 9.32531C48 10.7068 47.8836 12.0308 47.6509 13.2972C47.3018 14.6787 46.6618 16.6359 45.7309 19.1687L38.4 43L30.0218 43L35.9564 18.1325ZM6.28363 18.1325C4.30545 17.5569 2.79272 16.4632 1.74545 14.8514C0.581816 13.3548 -1.06199e-06 11.5127 -8.70762e-07 9.32531C-6.29208e-07 6.56225 0.872726 4.31726 2.61818 2.59036C4.36364 0.863453 6.51636 1.88082e-07 9.07636 4.11884e-07C11.8691 6.56033e-07 14.1382 0.863454 15.8836 2.59036C17.5127 4.4324 18.3273 6.67738 18.3273 9.32531C18.3273 10.7068 18.2109 12.0308 17.9782 13.2972C17.6291 14.6787 16.9891 16.6359 16.0582 19.1687L8.72726 43L0.349087 43L6.28363 18.1325Z" fill="#C49636"/>
</svg>
