<svg width="30" height="30" viewBox="0 0 30 30" fill="none" xmlns="http://www.w3.org/2000/svg">
<path fill-rule="evenodd" clip-rule="evenodd" d="M15 28.0643C7.78455 28.0643 1.93573 22.2155 1.93573 15C1.93573 7.78451 7.78455 1.93569 15 1.93569C22.2152 1.93569 28.0643 7.78451 28.0643 15C28.0643 22.2155 22.2152 28.0643 15 28.0643ZM15 0C6.71542 0 0 6.71542 0 15C0 23.2846 6.71542 30 15 30C23.2842 30 30 23.2846 30 15C30 6.71542 23.2842 0 15 0Z" fill="#F2F2F2"/>
<path fill-rule="evenodd" clip-rule="evenodd" d="M16.9692 13.0189C17.2091 13.0189 17.5423 12.8886 17.8865 12.4615V12.9546H18.6792V8.49126H17.8865V11.8787C17.7895 12.0056 17.5746 12.2129 17.4198 12.2129C17.2498 12.2129 17.2088 12.0922 17.2088 11.9128V8.49057H16.415V12.2219C16.415 12.6623 16.5442 13.0189 16.9692 13.0189Z" fill="#F2F2F2"/>
<path fill-rule="evenodd" clip-rule="evenodd" d="M13.8217 9.9052C13.8217 9.63343 13.9277 9.432 14.1469 9.432C14.3861 9.432 14.4885 9.62732 14.4885 9.9052V12.2135C14.4885 12.4837 14.3722 12.6832 14.1621 12.6832C13.9468 12.6832 13.8217 12.4749 13.8217 12.2135V9.9052ZM13.0188 12.2551C13.0188 13.1297 13.4057 13.5849 14.162 13.5849C14.7894 13.5849 15.2829 13.0892 15.2829 12.2551V9.82378C15.2829 9.04671 14.7946 8.49057 14.162 8.49057C13.4745 8.49057 13.0188 9.02722 13.0188 9.82378V12.2551Z" fill="#F2F2F2"/>
<path fill-rule="evenodd" clip-rule="evenodd" d="M11.3932 13.0189H12.4065V10.493L13.5849 6.79245H12.5564L11.9071 9.28118L11.2084 6.79245H10.1887L11.3932 10.493V13.0189Z" fill="#F2F2F2"/>
<path fill-rule="evenodd" clip-rule="evenodd" d="M20.7723 19.5801H19.198V20.4232C19.198 20.7587 19.2259 21.0483 19.5572 21.0483C19.9049 21.0483 19.9254 20.8122 19.9254 20.4232V20.1126H20.7723V20.4485C20.7723 21.3094 20.406 21.8315 19.5386 21.8315C18.7521 21.8315 18.3507 21.253 18.3507 20.4485V18.4426C18.3507 17.6656 18.8578 17.1276 19.6009 17.1276C20.3906 17.1276 20.7723 17.6338 20.7723 18.4426V19.5801ZM17.7297 20.784C17.7297 21.3369 17.5248 21.7664 16.9769 21.7664C16.6757 21.7664 16.4243 21.6554 16.1951 21.3665V21.71H15.3639V15.6503H16.1951V17.6013C16.3803 17.3728 16.6328 17.184 16.9268 17.184C17.5295 17.184 17.7297 17.6982 17.7297 18.3041V20.784ZM14.5609 21.71H13.7376V21.2168C13.5861 21.3983 13.4278 21.5368 13.2641 21.6322C12.8208 21.8886 12.2116 21.8835 12.2116 20.976V17.2404H13.0349V20.6662C13.0349 20.8462 13.0783 20.9677 13.2538 20.9677C13.4138 20.9677 13.6377 20.7602 13.7376 20.6329V17.2404H14.5609V21.71ZM11.2637 21.71H10.3369V16.53H9.37744V15.6503H12.2227V16.53H11.2637V21.71ZM20.0936 14.1509H9.90607C8.81164 14.1509 7.92456 15.0472 7.92456 16.1525V21.2071C7.92456 22.3123 8.81164 23.2075 9.90607 23.2075H20.0936C21.1884 23.2075 22.0755 22.3123 22.0755 21.2071V16.1525C22.0755 15.0472 21.1884 14.1509 20.0936 14.1509Z" fill="#F2F2F2"/>
<path fill-rule="evenodd" clip-rule="evenodd" d="M19.5316 18.1132C19.2941 18.1132 19.2454 18.3649 19.2454 18.721V19.2453H19.8114V18.721C19.8114 18.3695 19.7612 18.1132 19.5316 18.1132Z" fill="#F2F2F2"/>
<path fill-rule="evenodd" clip-rule="evenodd" d="M16.5551 18.1604C16.5073 18.1922 16.4613 18.2406 16.415 18.3064V21.2887C16.4705 21.3665 16.5241 21.4235 16.5757 21.4575C16.6857 21.5307 16.8475 21.5369 16.9218 21.4084C16.9616 21.341 16.9811 21.2314 16.9811 21.0785V18.6065C16.9811 18.4454 16.9563 18.3223 16.9086 18.239C16.8269 18.097 16.6736 18.0819 16.5551 18.1604Z" fill="#F2F2F2"/>
</svg>
